<svg id="Layer_1" data-name="Layer 1" xmlns="http://www.w3.org/2000/svg" viewBox="0 0 786 786"><defs><style>.cls-1{fill:#212121;}.cls-2{fill:#e3621f;}</style></defs><rect class="cls-1" width="786" height="786" rx="12"/><path class="cls-2" d="M621.06,234.13s-63.37-49.6-138.22-55.29l-6.75,13.49c67.68,16.56,98.72,40.29,131.15,69.44-55.91-28.54-111.12-55.29-207.34-55.29s-151.42,26.75-207.34,55.29c32.43-29.15,69.37-55.49,131.15-69.44L317,178.84c-78.53,7.42-138.23,55.29-138.23,55.29S108,336.76,95.81,538.23c71.35,82.28,179.69,82.93,179.69,82.93L298.16,591c-38.46-13.37-81.89-37.24-119.42-80.38,44.76,33.87,112.31,69.11,221.16,69.11s176.41-35.24,221.16-69.11c-37.52,43.14-80.95,67-119.41,80.38l22.66,30.2s108.34-.65,179.69-82.93C691.85,336.76,621.06,234.13,621.06,234.13Zm-311,248.81c-26.72,0-48.38-24.76-48.38-55.29s21.66-55.3,48.38-55.3,48.38,24.76,48.38,55.3S336.78,482.94,310.06,482.94Zm179.69,0c-26.72,0-48.38-24.76-48.38-55.29s21.66-55.3,48.38-55.3,48.38,24.76,48.38,55.3S516.47,482.94,489.75,482.94Z" transform="translate(-7 -7)"/></svg>