<svg id="Layer_1" data-name="Layer 1" xmlns="http://www.w3.org/2000/svg" viewBox="0 0 786 786"><defs><style>.cls-1{fill:#212121;}.cls-2,.cls-3{fill:#e3621f;}.cls-2{fill-rule:evenodd;}</style></defs><rect class="cls-1" width="786" height="786" rx="12"/><path class="cls-2" d="M400,107.26c-165.69,0-300,134.33-300,300,0,132.57,86,245,205.19,284.72,15,2.77,20.5-6.51,20.5-14.44,0-7.15-.28-30.79-.41-55.86-83.47,18.15-101.09-35.4-101.09-35.4-13.65-34.68-33.31-43.9-33.31-43.9-27.23-18.63,2.05-18.24,2.05-18.24,30.13,2.11,46,30.92,46,30.92C265.6,601,309,587.71,326.15,580c2.69-19.39,10.47-32.63,19.05-40.12-66.64-7.59-136.71-33.32-136.71-148.29,0-32.75,11.73-59.52,30.92-80.53-3.11-7.56-13.38-38.08,2.91-79.41,0,0,25.2-8.06,82.53,30.76a284.52,284.52,0,0,1,150.27,0c57.27-38.82,82.43-30.76,82.43-30.76,16.33,41.33,6.06,71.85,2.94,79.41,19.24,21,30.88,47.78,30.88,80.53,0,115.25-70.19,140.62-137,148,10.76,9.31,20.35,27.57,20.35,55.56,0,40.15-.35,72.46-.35,82.34,0,8,5.4,17.35,20.61,14.4C614.14,652.26,700,539.83,700,407.3,700,241.59,565.66,107.26,400,107.26Z" transform="translate(-7 -7)"/><path class="cls-3" d="M213.55,538.06c-.66,1.49-3,1.94-5.14.91s-3.4-3-2.7-4.5,3-2,5.17-.94,3.42,3,2.67,4.53Zm-3.69-2.74" transform="translate(-7 -7)"/><path class="cls-3" d="M225.71,551.62c-1.44,1.32-4.24.7-6.13-1.39s-2.33-4.89-.88-6.24,4.19-.7,6.15,1.39,2.35,4.89.86,6.24Zm-2.87-3.08" transform="translate(-7 -7)"/><path class="cls-3" d="M237.54,568.89c-1.84,1.28-4.85.09-6.71-2.58s-1.84-5.87,0-7.15,4.83-.13,6.71,2.51,1.83,5.92,0,7.22Zm0,0" transform="translate(-7 -7)"/><path class="cls-3" d="M253.74,585.59c-1.64,1.82-5.15,1.33-7.71-1.15s-3.35-5.85-1.71-7.67,5.2-1.3,7.78,1.15,3.39,5.87,1.64,7.67Zm0,0" transform="translate(-7 -7)"/><path class="cls-3" d="M276.1,595.28c-.73,2.35-4.1,3.42-7.5,2.42s-5.61-3.78-4.93-6.15,4.1-3.48,7.52-2.41,5.61,3.75,4.91,6.14Zm0,0" transform="translate(-7 -7)"/><path class="cls-3" d="M300.66,597.08c.08,2.47-2.8,4.53-6.37,4.57s-6.49-1.92-6.53-4.36,2.82-4.52,6.41-4.59,6.49,1.93,6.49,4.38Zm0,0" transform="translate(-7 -7)"/><path class="cls-3" d="M323.51,593.19c.42,2.42-2.06,4.89-5.6,5.55s-6.7-.85-7.15-3.24,2.09-5,5.57-5.6,6.73.84,7.18,3.29Zm0,0" transform="translate(-7 -7)"/></svg>