<?xml version="1.0" encoding="utf-8"?>
<!-- Generator: Adobe Illustrator 24.2.0, SVG Export Plug-In . SVG Version: 6.00 Build 0)  -->
<svg version="1.1" id="Layer_1" xmlns="http://www.w3.org/2000/svg" xmlns:xlink="http://www.w3.org/1999/xlink" x="0px" y="0px"
	 viewBox="0 0 800 800" style="enable-background:new 0 0 800 800;" xml:space="preserve">
<style type="text/css">
	.st0{display:none;}
	.st1{display:inline;}
	.st2{clip-path:url(#SVGID_2_);fill:#231F20;}
	.st3{clip-path:url(#SVGID_4_);}
	.st4{clip-path:url(#SVGID_6_);fill-rule:evenodd;clip-rule:evenodd;fill:#191717;}
	.st5{clip-path:url(#SVGID_8_);fill-rule:evenodd;clip-rule:evenodd;fill:#191717;}
	.st6{clip-path:url(#SVGID_10_);fill:#191717;}
	.st7{clip-path:url(#SVGID_12_);fill:#191717;}
	.st8{clip-path:url(#SVGID_14_);fill:#191717;}
	.st9{clip-path:url(#SVGID_16_);fill:#191717;}
	.st10{clip-path:url(#SVGID_18_);fill:#191717;}
	.st11{clip-path:url(#SVGID_20_);fill:#191717;}
	.st12{clip-path:url(#SVGID_22_);fill:#191717;}
	.st13{clip-path:url(#SVGID_24_);fill:none;stroke:#1981BC;stroke-linecap:round;stroke-miterlimit:10;}
	.st14{clip-path:url(#SVGID_26_);fill:none;stroke:#1981BC;stroke-linecap:round;stroke-miterlimit:10;stroke-dasharray:1,2;}
	.st15{clip-path:url(#SVGID_28_);fill:none;stroke:#1981BC;stroke-linecap:round;stroke-miterlimit:10;}
	.st16{clip-path:url(#SVGID_30_);fill:#0072BC;}
	.st17{clip-path:url(#SVGID_32_);fill:#0072BC;}
	.st18{clip-path:url(#SVGID_34_);fill:#0072BC;}
	.st19{clip-path:url(#SVGID_36_);fill:#0072BC;}
	.st20{clip-path:url(#SVGID_38_);fill:#0072BC;}
	.st21{clip-path:url(#SVGID_40_);fill:#0072BC;}
	.st22{clip-path:url(#SVGID_42_);fill:#0072BC;}
	.st23{clip-path:url(#SVGID_44_);fill:#0072BC;}
	.st24{clip-path:url(#SVGID_46_);fill:#0072BC;}
	.st25{clip-path:url(#SVGID_48_);fill:#0072BC;}
	.st26{clip-path:url(#SVGID_50_);fill:#0072BC;}
	.st27{clip-path:url(#SVGID_52_);fill:#0072BC;}
	.st28{clip-path:url(#SVGID_54_);fill:#0072BC;}
	.st29{clip-path:url(#SVGID_56_);fill:#0072BC;}
	.st30{clip-path:url(#SVGID_58_);fill:#0072BC;}
	.st31{clip-path:url(#SVGID_60_);fill:#0072BC;}
	.st32{clip-path:url(#SVGID_62_);fill:#0072BC;}
	.st33{clip-path:url(#SVGID_64_);fill:#0072BC;}
	.st34{clip-path:url(#SVGID_66_);fill:#0072BC;}
	.st35{clip-path:url(#SVGID_68_);fill:#0072BC;}
	.st36{clip-path:url(#SVGID_70_);fill:#0072BC;}
	.st37{clip-path:url(#SVGID_72_);fill:#0072BC;}
	.st38{clip-path:url(#SVGID_74_);fill:#0072BC;}
	.st39{clip-path:url(#SVGID_76_);fill:#0072BC;}
	.st40{clip-path:url(#SVGID_78_);fill:#0072BC;}
	.st41{clip-path:url(#SVGID_80_);fill:#0072BC;}
	.st42{clip-path:url(#SVGID_82_);fill:#0072BC;}
	.st43{clip-path:url(#SVGID_84_);fill:#0072BC;}
	.st44{clip-path:url(#SVGID_86_);fill:#0072BC;}
	.st45{clip-path:url(#SVGID_88_);fill:#0072BC;}
	.st46{clip-path:url(#SVGID_90_);fill:#0072BC;}
	.st47{clip-path:url(#SVGID_92_);fill:#0072BC;}
	.st48{clip-path:url(#SVGID_94_);fill:#0072BC;}
	.st49{clip-path:url(#SVGID_96_);fill-rule:evenodd;clip-rule:evenodd;fill:#FFFFFF;}
	.st50{clip-path:url(#SVGID_98_);fill-rule:evenodd;clip-rule:evenodd;fill:#FFFFFF;}
	.st51{clip-path:url(#SVGID_100_);fill:#FFFFFF;}
	.st52{clip-path:url(#SVGID_102_);fill:#FFFFFF;}
	.st53{clip-path:url(#SVGID_104_);fill:#FFFFFF;}
	.st54{clip-path:url(#SVGID_106_);fill:#FFFFFF;}
	.st55{clip-path:url(#SVGID_108_);fill:#FFFFFF;}
	.st56{clip-path:url(#SVGID_110_);fill:#FFFFFF;}
	.st57{clip-path:url(#SVGID_112_);fill:#FFFFFF;}
	.st58{clip-path:url(#SVGID_114_);fill:none;stroke:#1981BC;stroke-linecap:round;stroke-miterlimit:10;}
	.st59{clip-path:url(#SVGID_116_);fill:none;stroke:#1981BC;stroke-linecap:round;stroke-miterlimit:10;stroke-dasharray:1,2;}
	.st60{clip-path:url(#SVGID_118_);fill:none;stroke:#1981BC;stroke-linecap:round;stroke-miterlimit:10;}
	.st61{clip-path:url(#SVGID_120_);fill:#0072BC;}
	.st62{clip-path:url(#SVGID_122_);fill:#0072BC;}
	.st63{clip-path:url(#SVGID_124_);fill:#0072BC;}
	.st64{clip-path:url(#SVGID_126_);fill:#0072BC;}
	.st65{clip-path:url(#SVGID_128_);fill:#0072BC;}
	.st66{clip-path:url(#SVGID_130_);fill:#0072BC;}
	.st67{clip-path:url(#SVGID_132_);fill:#0072BC;}
	.st68{clip-path:url(#SVGID_134_);fill:#0072BC;}
	.st69{clip-path:url(#SVGID_136_);fill:#0072BC;}
	.st70{clip-path:url(#SVGID_138_);fill:#0072BC;}
	.st71{clip-path:url(#SVGID_140_);fill:#0072BC;}
	.st72{clip-path:url(#SVGID_142_);fill:#0072BC;}
	.st73{clip-path:url(#SVGID_144_);fill:#0072BC;}
	.st74{clip-path:url(#SVGID_146_);fill:#0072BC;}
	.st75{clip-path:url(#SVGID_148_);fill:#0072BC;}
	.st76{clip-path:url(#SVGID_150_);fill:#0072BC;}
	.st77{clip-path:url(#SVGID_152_);fill:#0072BC;}
	.st78{clip-path:url(#SVGID_154_);fill:#0072BC;}
	.st79{clip-path:url(#SVGID_156_);fill:#0072BC;}
	.st80{clip-path:url(#SVGID_158_);fill:#0072BC;}
	.st81{clip-path:url(#SVGID_160_);fill:#0072BC;}
	.st82{clip-path:url(#SVGID_162_);fill:#0072BC;}
	.st83{clip-path:url(#SVGID_164_);fill:#0072BC;}
	.st84{clip-path:url(#SVGID_166_);fill:#0072BC;}
	.st85{clip-path:url(#SVGID_168_);fill:#0072BC;}
	.st86{clip-path:url(#SVGID_170_);fill:#0072BC;}
	.st87{clip-path:url(#SVGID_172_);fill:#0072BC;}
	.st88{clip-path:url(#SVGID_174_);fill:#0072BC;}
	.st89{clip-path:url(#SVGID_176_);fill:#0072BC;}
	.st90{clip-path:url(#SVGID_178_);fill:#0072BC;}
	.st91{clip-path:url(#SVGID_180_);fill:#0072BC;}
	.st92{clip-path:url(#SVGID_182_);fill:#0072BC;}
	.st93{clip-path:url(#SVGID_184_);fill:#0072BC;}
	.st94{display:none;fill:#212121;}
	.st95{display:inline;fill:#E3621F;}
	.st96{display:none;fill:#E3621F;}
	.st97{display:inline;fill-rule:evenodd;clip-rule:evenodd;fill:#E3621F;}
	.st98{display:inline;fill:#212121;}
	.st99{fill:#212121;}
	.st100{fill-rule:evenodd;clip-rule:evenodd;fill:#141414;}
	.st101{fill:#141414;}
</style>
<image style="display:none;overflow:visible;enable-background:new    ;" width="1024" height="253" xlink:href="1FC0E41C.png"  transform="matrix(1 0 0 1 -112 -269)">
</image>
<g class="st0">
	<g class="st1">
		<g>
			<defs>
				<rect id="SVGID_1_" x="904" y="-1396.5" width="531" height="552"/>
			</defs>
			<clipPath id="SVGID_2_">
				<use xlink:href="#SVGID_1_"  style="overflow:visible;"/>
			</clipPath>
			<rect x="904" y="-1120.5" class="st2" width="531" height="276"/>
		</g>
		<g>
			<defs>
				<rect id="SVGID_3_" x="904" y="-1396.5" width="531" height="552"/>
			</defs>
			<clipPath id="SVGID_4_">
				<use xlink:href="#SVGID_3_"  style="overflow:visible;"/>
			</clipPath>
			<g class="st3">
				<g>
					<defs>
						<rect id="SVGID_5_" x="904" y="-1396.5" width="531" height="552"/>
					</defs>
					<clipPath id="SVGID_6_">
						<use xlink:href="#SVGID_5_"  style="overflow:visible;"/>
					</clipPath>
					<path class="st4" d="M1056.6-1289.1c-9,0-16.3,7.3-16.3,16.3c0,7.2,4.7,13.3,11.1,15.5c0.8,0.2,1.1-0.3,1.1-0.8
						c0-0.4,0-1.4,0-2.8c-4.5,1-5.5-2.2-5.5-2.2c-0.7-1.9-1.8-2.4-1.8-2.4c-1.5-1,0.1-1,0.1-1c1.6,0.1,2.5,1.7,2.5,1.7
						c1.4,2.5,3.8,1.8,4.7,1.3c0.2-1.1,0.6-1.8,1-2.2c-3.6-0.4-7.4-1.8-7.4-8.1c0-1.8,0.6-3.2,1.7-4.4c-0.2-0.4-0.7-2.1,0.2-4.3
						c0,0,1.4-0.4,4.5,1.7c1.3-0.4,2.7-0.5,4.1-0.6c1.4,0,2.8,0.2,4.1,0.6c3.1-2.1,4.5-1.7,4.5-1.7c0.9,2.2,0.3,3.9,0.2,4.3
						c1,1.1,1.7,2.6,1.7,4.4c0,6.3-3.8,7.6-7.4,8c0.6,0.5,1.1,1.5,1.1,3c0,2.2,0,3.9,0,4.5c0,0.4,0.3,0.9,1.1,0.8
						c6.5-2.2,11.1-8.3,11.1-15.5C1072.9-1281.8,1065.6-1289.1,1056.6-1289.1"/>
				</g>
				<g>
					<defs>
						<rect id="SVGID_7_" x="904" y="-1396.5" width="531" height="552"/>
					</defs>
					<clipPath id="SVGID_8_">
						<use xlink:href="#SVGID_7_"  style="overflow:visible;"/>
					</clipPath>
					<path class="st5" d="M1254.6-1338.1c-33.3,0-60.4,27-60.4,60.4c0,26.7,17.3,49.3,41.3,57.3c3,0.6,4.1-1.3,4.1-2.9
						c0-1.4-0.1-6.2-0.1-11.2c-16.8,3.7-20.3-7.1-20.3-7.1c-2.8-7-6.7-8.8-6.7-8.8c-5.5-3.8,0.4-3.7,0.4-3.7
						c6.1,0.4,9.3,6.2,9.3,6.2c5.4,9.2,14.1,6.6,17.6,5c0.5-3.9,2.1-6.6,3.8-8.1c-13.4-1.5-27.5-6.7-27.5-29.8
						c0-6.6,2.4-12,6.2-16.2c-0.6-1.5-2.7-7.7,0.6-16c0,0,5.1-1.6,16.6,6.2c4.8-1.3,10-2,15.1-2c5.1,0,10.3,0.7,15.1,2
						c11.5-7.8,16.6-6.2,16.6-6.2c3.3,8.3,1.2,14.5,0.6,16c3.9,4.2,6.2,9.6,6.2,16.2c0,23.2-14.1,28.3-27.6,29.8
						c2.2,1.9,4.1,5.6,4.1,11.2c0,8.1-0.1,14.6-0.1,16.6c0,1.6,1.1,3.5,4.2,2.9c24-8,41.3-30.6,41.3-57.3
						C1315-1311.1,1288-1338.1,1254.6-1338.1"/>
				</g>
				<g>
					<defs>
						<rect id="SVGID_9_" x="904" y="-1396.5" width="531" height="552"/>
					</defs>
					<clipPath id="SVGID_10_">
						<use xlink:href="#SVGID_9_"  style="overflow:visible;"/>
					</clipPath>
					<path class="st6" d="M1217.1-1251.4c-0.1,0.3-0.6,0.4-1,0.2c-0.4-0.2-0.7-0.6-0.5-0.9c0.1-0.3,0.6-0.4,1-0.2
						S1217.3-1251.7,1217.1-1251.4"/>
				</g>
				<g>
					<defs>
						<rect id="SVGID_11_" x="904" y="-1396.5" width="531" height="552"/>
					</defs>
					<clipPath id="SVGID_12_">
						<use xlink:href="#SVGID_11_"  style="overflow:visible;"/>
					</clipPath>
					<path class="st7" d="M1219.6-1248.7c-0.3,0.3-0.8,0.1-1.2-0.3c-0.4-0.4-0.5-1-0.2-1.3c0.3-0.3,0.8-0.1,1.2,0.3
						C1219.8-1249.5,1219.9-1248.9,1219.6-1248.7"/>
				</g>
				<g>
					<defs>
						<rect id="SVGID_13_" x="904" y="-1396.5" width="531" height="552"/>
					</defs>
					<clipPath id="SVGID_14_">
						<use xlink:href="#SVGID_13_"  style="overflow:visible;"/>
					</clipPath>
					<path class="st8" d="M1221.9-1245.2c-0.4,0.3-1,0-1.3-0.5s-0.4-1.2,0-1.4c0.4-0.3,1,0,1.3,0.5
						C1222.3-1246.1,1222.3-1245.5,1221.9-1245.2"/>
				</g>
				<g>
					<defs>
						<rect id="SVGID_15_" x="904" y="-1396.5" width="531" height="552"/>
					</defs>
					<clipPath id="SVGID_16_">
						<use xlink:href="#SVGID_15_"  style="overflow:visible;"/>
					</clipPath>
					<path class="st9" d="M1225.2-1241.8c-0.3,0.4-1,0.3-1.6-0.2c-0.5-0.5-0.7-1.2-0.3-1.5c0.3-0.4,1.1-0.3,1.6,0.2
						C1225.4-1242.9,1225.6-1242.2,1225.2-1241.8"/>
				</g>
				<g>
					<defs>
						<rect id="SVGID_17_" x="904" y="-1396.5" width="531" height="552"/>
					</defs>
					<clipPath id="SVGID_18_">
						<use xlink:href="#SVGID_17_"  style="overflow:visible;"/>
					</clipPath>
					<path class="st10" d="M1229.7-1239.9c-0.2,0.5-0.8,0.7-1.5,0.5c-0.7-0.2-1.1-0.8-1-1.2s0.8-0.7,1.5-0.5
						C1229.4-1240.9,1229.8-1240.4,1229.7-1239.9"/>
				</g>
				<g>
					<defs>
						<rect id="SVGID_19_" x="904" y="-1396.5" width="531" height="552"/>
					</defs>
					<clipPath id="SVGID_20_">
						<use xlink:href="#SVGID_19_"  style="overflow:visible;"/>
					</clipPath>
					<path class="st11" d="M1234.7-1239.5c0,0.5-0.6,0.9-1.3,0.9c-0.7,0-1.3-0.4-1.3-0.9c0-0.5,0.6-0.9,1.3-0.9
						C1234.1-1240.4,1234.7-1240,1234.7-1239.5"/>
				</g>
				<g>
					<defs>
						<rect id="SVGID_21_" x="904" y="-1396.5" width="531" height="552"/>
					</defs>
					<clipPath id="SVGID_22_">
						<use xlink:href="#SVGID_21_"  style="overflow:visible;"/>
					</clipPath>
					<path class="st12" d="M1239.3-1240.3c0.1,0.5-0.4,1-1.1,1.1c-0.7,0.1-1.3-0.2-1.4-0.7c-0.1-0.5,0.4-1,1.1-1.1
						C1238.5-1241.1,1239.2-1240.8,1239.3-1240.3"/>
				</g>
				<g>
					<defs>
						<rect id="SVGID_23_" x="904" y="-1396.5" width="531" height="552"/>
					</defs>
					<clipPath id="SVGID_24_">
						<use xlink:href="#SVGID_23_"  style="overflow:visible;"/>
					</clipPath>
					<line class="st13" x1="1128.9" y1="-1344" x2="1128.9" y2="-1343.5"/>
				</g>
				<g>
					<defs>
						<rect id="SVGID_25_" x="904" y="-1396.5" width="531" height="552"/>
					</defs>
					<clipPath id="SVGID_26_">
						<use xlink:href="#SVGID_25_"  style="overflow:visible;"/>
					</clipPath>
					<line class="st14" x1="1128.9" y1="-1341.5" x2="1128.9" y2="-1207.6"/>
				</g>
				<g>
					<defs>
						<rect id="SVGID_27_" x="904" y="-1396.5" width="531" height="552"/>
					</defs>
					<clipPath id="SVGID_28_">
						<use xlink:href="#SVGID_27_"  style="overflow:visible;"/>
					</clipPath>
					<line class="st15" x1="1128.9" y1="-1206.6" x2="1128.9" y2="-1206.1"/>
				</g>
				<g>
					<defs>
						<rect id="SVGID_29_" x="904" y="-1396.5" width="531" height="552"/>
					</defs>
					<clipPath id="SVGID_30_">
						<use xlink:href="#SVGID_29_"  style="overflow:visible;"/>
					</clipPath>
					<path class="st16" d="M1037.3-1192c-0.4-0.3-0.9-0.4-1.5-0.4c-0.2,0-0.5,0-0.7,0.1c-0.2,0.1-0.4,0.1-0.6,0.2s-0.3,0.3-0.4,0.4
						c-0.1,0.2-0.2,0.4-0.2,0.7c0,0.3,0.1,0.5,0.2,0.6c0.2,0.2,0.4,0.3,0.6,0.4s0.6,0.2,0.9,0.3c0.3,0.1,0.7,0.1,1,0.2
						s0.7,0.2,1,0.3s0.6,0.3,0.9,0.4s0.5,0.4,0.6,0.7c0.2,0.3,0.2,0.6,0.2,1.1c0,0.5-0.1,0.8-0.3,1.2c-0.2,0.3-0.5,0.6-0.8,0.8
						c-0.3,0.2-0.7,0.3-1.1,0.4c-0.4,0.1-0.8,0.1-1.2,0.1c-0.5,0-0.9-0.1-1.4-0.2s-0.8-0.3-1.1-0.6c-0.3-0.2-0.6-0.6-0.8-0.9
						s-0.3-0.8-0.3-1.3h1.1c0,0.4,0.1,0.7,0.2,0.9s0.3,0.5,0.6,0.6c0.2,0.2,0.5,0.3,0.8,0.4c0.3,0.1,0.6,0.1,0.9,0.1
						c0.3,0,0.5,0,0.8-0.1c0.3-0.1,0.5-0.1,0.7-0.3s0.4-0.3,0.5-0.5c0.1-0.2,0.2-0.5,0.2-0.8c0-0.3-0.1-0.5-0.2-0.7
						c-0.2-0.2-0.4-0.3-0.6-0.4s-0.6-0.2-0.9-0.3c-0.3-0.1-0.7-0.2-1-0.2c-0.3-0.1-0.7-0.2-1-0.3s-0.6-0.2-0.9-0.4
						c-0.3-0.2-0.5-0.4-0.6-0.6c-0.2-0.3-0.2-0.6-0.2-1c0-0.4,0.1-0.8,0.3-1.1c0.2-0.3,0.4-0.6,0.7-0.8c0.3-0.2,0.6-0.4,1-0.5
						c0.4-0.1,0.8-0.2,1.2-0.2c0.4,0,0.8,0.1,1.2,0.2c0.4,0.1,0.7,0.3,1,0.5s0.5,0.5,0.7,0.8s0.3,0.8,0.3,1.2h-1.1
						C1037.9-1191.3,1037.7-1191.8,1037.3-1192"/>
				</g>
				<g>
					<defs>
						<rect id="SVGID_31_" x="904" y="-1396.5" width="531" height="552"/>
					</defs>
					<clipPath id="SVGID_32_">
						<use xlink:href="#SVGID_31_"  style="overflow:visible;"/>
					</clipPath>
					<path class="st17" d="M1041.6-1190.8v0.9h0c0.5-0.7,1.1-1.1,2-1.1c0.4,0,0.7,0.1,1,0.2s0.5,0.4,0.7,0.8
						c0.2-0.3,0.5-0.6,0.8-0.8s0.7-0.3,1.1-0.3c0.3,0,0.6,0,0.8,0.1c0.3,0.1,0.5,0.2,0.7,0.3c0.2,0.2,0.3,0.3,0.4,0.6
						c0.1,0.2,0.2,0.5,0.2,0.8v4.6h-1v-4.1c0-0.2,0-0.4-0.1-0.5s-0.1-0.3-0.2-0.4c-0.1-0.1-0.2-0.2-0.4-0.3s-0.4-0.1-0.6-0.1
						c-0.5,0-0.9,0.1-1.2,0.4c-0.3,0.3-0.4,0.7-0.4,1.2v3.9h-1v-4.1c0-0.2,0-0.4-0.1-0.6s-0.1-0.3-0.2-0.4c-0.1-0.1-0.2-0.2-0.3-0.3
						c-0.2-0.1-0.3-0.1-0.6-0.1c-0.3,0-0.6,0.1-0.8,0.2s-0.4,0.3-0.5,0.4c-0.1,0.2-0.2,0.3-0.3,0.5s-0.1,0.3-0.1,0.4v3.9h-1v-6.2
						L1041.6-1190.8L1041.6-1190.8z"/>
				</g>
				<g>
					<defs>
						<rect id="SVGID_33_" x="904" y="-1396.5" width="531" height="552"/>
					</defs>
					<clipPath id="SVGID_34_">
						<use xlink:href="#SVGID_33_"  style="overflow:visible;"/>
					</clipPath>
					<path class="st18" d="M1055.6-1184.5c-0.3,0-0.5-0.1-0.6-0.2s-0.2-0.4-0.2-0.7c-0.3,0.3-0.6,0.6-1,0.7s-0.8,0.2-1.2,0.2
						c-0.3,0-0.5,0-0.8-0.1c-0.3-0.1-0.5-0.2-0.7-0.3c-0.2-0.1-0.3-0.3-0.4-0.5c-0.1-0.2-0.2-0.5-0.2-0.8c0-0.3,0.1-0.6,0.2-0.9
						s0.3-0.4,0.5-0.6c0.2-0.1,0.4-0.3,0.7-0.3s0.5-0.1,0.8-0.2c0.3-0.1,0.6-0.1,0.8-0.1s0.5-0.1,0.7-0.1c0.2-0.1,0.3-0.1,0.5-0.2
						c0.1-0.1,0.2-0.3,0.2-0.4c0-0.2,0-0.4-0.1-0.5c-0.1-0.1-0.2-0.2-0.3-0.3c-0.1-0.1-0.3-0.1-0.4-0.2c-0.2,0-0.3,0-0.5,0
						c-0.4,0-0.8,0.1-1.1,0.3c-0.3,0.2-0.4,0.5-0.5,0.9h-1c0-0.4,0.1-0.7,0.2-1s0.3-0.5,0.6-0.6s0.5-0.3,0.8-0.3
						c0.3-0.1,0.6-0.1,1-0.1c0.3,0,0.6,0,0.8,0.1c0.3,0,0.5,0.1,0.8,0.3c0.2,0.1,0.4,0.3,0.5,0.5s0.2,0.5,0.2,0.9v3.2
						c0,0.2,0,0.4,0,0.5s0.1,0.2,0.3,0.2c0.1,0,0.2,0,0.3-0.1v0.8C1056.2-1184.6,1055.9-1184.5,1055.6-1184.5 M1054.2-1187.6
						c-0.2,0.1-0.4,0.1-0.7,0.1c-0.2,0-0.5,0.1-0.7,0.1c-0.2,0-0.4,0.1-0.6,0.2c-0.2,0.1-0.3,0.2-0.4,0.3s-0.2,0.3-0.2,0.6
						c0,0.2,0,0.3,0.1,0.4s0.2,0.2,0.3,0.3c0.1,0.1,0.2,0.1,0.4,0.2c0.2,0,0.3,0.1,0.4,0.1c0.3,0,0.6-0.1,0.9-0.1s0.4-0.2,0.6-0.3
						s0.3-0.3,0.3-0.4c0.1-0.2,0.1-0.3,0.1-0.5v-1C1054.6-1187.7,1054.4-1187.7,1054.2-1187.6"/>
				</g>
				<g>
					<defs>
						<rect id="SVGID_35_" x="904" y="-1396.5" width="531" height="552"/>
					</defs>
					<clipPath id="SVGID_36_">
						<use xlink:href="#SVGID_35_"  style="overflow:visible;"/>
					</clipPath>
					<rect x="1057.4" y="-1193.2" class="st19" width="1" height="8.6"/>
				</g>
				<g>
					<defs>
						<rect id="SVGID_37_" x="904" y="-1396.5" width="531" height="552"/>
					</defs>
					<clipPath id="SVGID_38_">
						<use xlink:href="#SVGID_37_"  style="overflow:visible;"/>
					</clipPath>
					<rect x="1060" y="-1193.2" class="st20" width="1" height="8.6"/>
				</g>
				<g>
					<defs>
						<rect id="SVGID_39_" x="904" y="-1396.5" width="531" height="552"/>
					</defs>
					<clipPath id="SVGID_40_">
						<use xlink:href="#SVGID_39_"  style="overflow:visible;"/>
					</clipPath>
					<path class="st21" d="M1005.9-1175.5v-0.9h1v-0.9c0-0.5,0.2-0.9,0.4-1.2s0.7-0.4,1.3-0.4c0.1,0,0.2,0,0.3,0
						c0.1,0,0.2,0,0.3,0.1v0.9c-0.1,0-0.2-0.1-0.3-0.1c-0.1,0-0.2,0-0.3,0c-0.3,0-0.4,0.1-0.6,0.1c-0.1,0.1-0.2,0.3-0.2,0.6v0.9h1.2
						v0.9h-1.2v5.3h-1v-5.3L1005.9-1175.5L1005.9-1175.5z"/>
				</g>
				<g>
					<defs>
						<rect id="SVGID_41_" x="904" y="-1396.5" width="531" height="552"/>
					</defs>
					<clipPath id="SVGID_42_">
						<use xlink:href="#SVGID_41_"  style="overflow:visible;"/>
					</clipPath>
					<path class="st22" d="M1009.9-1174.6c0.1-0.4,0.3-0.7,0.6-1s0.6-0.5,1-0.7c0.4-0.2,0.8-0.3,1.3-0.3c0.5,0,0.9,0.1,1.3,0.3
						s0.7,0.4,0.9,0.7c0.3,0.3,0.5,0.6,0.6,1c0.1,0.4,0.2,0.8,0.2,1.3c0,0.4-0.1,0.9-0.2,1.3s-0.3,0.7-0.6,1
						c-0.3,0.3-0.6,0.5-0.9,0.7s-0.8,0.3-1.3,0.3s-0.9-0.1-1.3-0.3c-0.4-0.2-0.7-0.4-1-0.7s-0.5-0.6-0.6-1c-0.1-0.4-0.2-0.8-0.2-1.3
						C1009.7-1173.8,1009.8-1174.2,1009.9-1174.6 M1011-1172.3c0.1,0.3,0.2,0.5,0.4,0.7c0.2,0.2,0.4,0.3,0.6,0.4s0.5,0.2,0.8,0.2
						s0.5-0.1,0.8-0.2c0.2-0.1,0.4-0.3,0.6-0.4s0.3-0.4,0.4-0.7s0.2-0.6,0.2-1c0-0.4,0-0.7-0.2-1c-0.1-0.3-0.2-0.5-0.4-0.7
						c-0.2-0.2-0.4-0.3-0.6-0.5c-0.2-0.1-0.5-0.2-0.8-0.2s-0.5,0.1-0.8,0.2c-0.2,0.1-0.4,0.3-0.6,0.5s-0.3,0.4-0.4,0.7
						c-0.1,0.3-0.2,0.6-0.2,1S1010.8-1172.6,1011-1172.3"/>
				</g>
				<g>
					<defs>
						<rect id="SVGID_43_" x="904" y="-1396.5" width="531" height="552"/>
					</defs>
					<clipPath id="SVGID_44_">
						<use xlink:href="#SVGID_43_"  style="overflow:visible;"/>
					</clipPath>
					<path class="st23" d="M1017.9-1176.4v1.3h0c0.3-0.5,0.5-0.9,0.9-1.1s0.8-0.3,1.4-0.3v1.1c-0.4,0-0.8,0.1-1,0.2
						c-0.3,0.1-0.5,0.3-0.7,0.5c-0.2,0.2-0.3,0.5-0.4,0.8s-0.1,0.7-0.1,1.1v2.8h-1v-6.2L1017.9-1176.4L1017.9-1176.4z"/>
				</g>
				<g>
					<defs>
						<rect id="SVGID_45_" x="904" y="-1396.5" width="531" height="552"/>
					</defs>
					<clipPath id="SVGID_46_">
						<use xlink:href="#SVGID_45_"  style="overflow:visible;"/>
					</clipPath>
					<path class="st24" d="M1026.8-1170.2v-6.1h-2.2v-0.8c0.3,0,0.6,0,0.8-0.1c0.3,0,0.5-0.1,0.7-0.3s0.4-0.3,0.6-0.5
						s0.3-0.5,0.3-0.8h0.8v8.5L1026.8-1170.2L1026.8-1170.2z"/>
				</g>
				<g>
					<defs>
						<rect id="SVGID_47_" x="904" y="-1396.5" width="531" height="552"/>
					</defs>
					<clipPath id="SVGID_48_">
						<use xlink:href="#SVGID_47_"  style="overflow:visible;"/>
					</clipPath>
					<path class="st25" d="M1034.7-1177.5c-0.3-0.2-0.6-0.3-1-0.3c-0.4,0-0.8,0.1-1,0.3s-0.5,0.5-0.6,0.8c-0.2,0.3-0.3,0.7-0.3,1.1
						s-0.1,0.7-0.1,1.1l0,0c0.2-0.4,0.5-0.7,0.9-0.8c0.4-0.2,0.8-0.3,1.2-0.3c0.4,0,0.8,0.1,1.1,0.2c0.3,0.1,0.6,0.3,0.8,0.6
						s0.4,0.5,0.5,0.9s0.2,0.7,0.2,1.1c0,0.3-0.1,0.6-0.1,1c-0.1,0.3-0.3,0.6-0.5,0.9s-0.5,0.5-0.9,0.7c-0.4,0.2-0.8,0.3-1.3,0.3
						c-0.6,0-1.1-0.1-1.5-0.4c-0.4-0.3-0.7-0.6-0.9-1s-0.3-0.8-0.4-1.3c-0.1-0.5-0.1-0.9-0.1-1.4c0-0.6,0.1-1.2,0.2-1.7
						c0.1-0.6,0.3-1,0.5-1.5c0.2-0.4,0.6-0.8,1-1c0.4-0.3,0.9-0.4,1.5-0.4c0.7,0,1.3,0.2,1.7,0.6c0.4,0.4,0.7,0.9,0.7,1.6h-1
						C1035.1-1177,1035-1177.3,1034.7-1177.5 M1032.9-1174.7c-0.2,0.1-0.4,0.2-0.6,0.4s-0.3,0.4-0.3,0.6c-0.1,0.2-0.1,0.5-0.1,0.8
						s0,0.5,0.1,0.7s0.2,0.4,0.3,0.6c0.2,0.2,0.3,0.3,0.6,0.4s0.5,0.2,0.8,0.2s0.5-0.1,0.7-0.2s0.4-0.2,0.5-0.4
						c0.1-0.2,0.3-0.4,0.3-0.6s0.1-0.5,0.1-0.7c0-0.3,0-0.5-0.1-0.8c-0.1-0.2-0.2-0.4-0.3-0.6s-0.3-0.3-0.5-0.4
						c-0.2-0.1-0.5-0.2-0.8-0.2S1033.1-1174.8,1032.9-1174.7"/>
				</g>
				<g>
					<defs>
						<rect id="SVGID_49_" x="904" y="-1396.5" width="531" height="552"/>
					</defs>
					<clipPath id="SVGID_50_">
						<use xlink:href="#SVGID_49_"  style="overflow:visible;"/>
					</clipPath>
					<path class="st26" d="M1038.7-1176.4v0.8h0c0.2-0.3,0.4-0.6,0.8-0.8s0.8-0.2,1.2-0.2c0.5,0,0.9,0.1,1.3,0.3
						c0.4,0.2,0.7,0.4,0.9,0.7c0.2,0.3,0.4,0.7,0.5,1s0.2,0.8,0.2,1.3s-0.1,0.8-0.2,1.3c-0.1,0.4-0.3,0.7-0.5,1
						c-0.2,0.3-0.5,0.5-0.9,0.7c-0.4,0.2-0.8,0.3-1.2,0.3c-0.2,0-0.3,0-0.5-0.1c-0.2,0-0.4-0.1-0.6-0.2c-0.2-0.1-0.4-0.2-0.5-0.3
						s-0.3-0.3-0.4-0.5h0v3.2h-1v-8.6L1038.7-1176.4L1038.7-1176.4z M1042.3-1174.2c-0.1-0.3-0.2-0.5-0.3-0.7s-0.4-0.4-0.6-0.5
						s-0.5-0.2-0.9-0.2c-0.3,0-0.6,0.1-0.9,0.2c-0.2,0.1-0.4,0.3-0.6,0.5s-0.3,0.5-0.3,0.8s-0.1,0.6-0.1,0.8c0,0.3,0,0.6,0.1,0.9
						c0.1,0.3,0.2,0.5,0.3,0.8c0.2,0.2,0.4,0.4,0.6,0.5s0.6,0.2,0.9,0.2s0.7-0.1,0.9-0.2c0.2-0.1,0.4-0.3,0.6-0.5
						c0.2-0.2,0.3-0.5,0.3-0.8s0.1-0.6,0.1-0.9C1042.5-1173.7,1042.4-1174,1042.3-1174.2"/>
				</g>
				<g>
					<defs>
						<rect id="SVGID_51_" x="904" y="-1396.5" width="531" height="552"/>
					</defs>
					<clipPath id="SVGID_52_">
						<use xlink:href="#SVGID_51_"  style="overflow:visible;"/>
					</clipPath>
					<polygon class="st27" points="1044.3,-1176.4 1045.6,-1176.4 1047,-1174.3 1048.6,-1176.4 1049.8,-1176.4 1047.7,-1173.6 
						1050.1,-1170.2 1048.8,-1170.2 1047,-1172.8 1045.3,-1170.2 1044.1,-1170.2 1046.4,-1173.5 					"/>
				</g>
				<g>
					<defs>
						<rect id="SVGID_53_" x="904" y="-1396.5" width="531" height="552"/>
					</defs>
					<clipPath id="SVGID_54_">
						<use xlink:href="#SVGID_53_"  style="overflow:visible;"/>
					</clipPath>
					<rect x="1050.8" y="-1174.1" class="st28" width="3.5" height="1"/>
				</g>
				<g>
					<defs>
						<rect id="SVGID_55_" x="904" y="-1396.5" width="531" height="552"/>
					</defs>
					<clipPath id="SVGID_56_">
						<use xlink:href="#SVGID_55_"  style="overflow:visible;"/>
					</clipPath>
					<path class="st29" d="M1058.1-1170.2v-6.1h-2.2v-0.8c0.3,0,0.6,0,0.8-0.1c0.3,0,0.5-0.1,0.7-0.3s0.4-0.3,0.6-0.5
						s0.3-0.5,0.3-0.8h0.8v8.5L1058.1-1170.2L1058.1-1170.2z"/>
				</g>
				<g>
					<defs>
						<rect id="SVGID_57_" x="904" y="-1396.5" width="531" height="552"/>
					</defs>
					<clipPath id="SVGID_58_">
						<use xlink:href="#SVGID_57_"  style="overflow:visible;"/>
					</clipPath>
					<path class="st30" d="M1062.2-1176.9c0.1-0.4,0.3-0.7,0.5-0.9c0.2-0.3,0.5-0.5,0.9-0.6s0.8-0.2,1.2-0.2c0.4,0,0.7,0.1,1,0.2
						c0.3,0.1,0.6,0.3,0.8,0.5s0.4,0.5,0.6,0.8c0.1,0.3,0.2,0.7,0.2,1.1c0,0.4-0.1,0.7-0.2,1c-0.1,0.3-0.3,0.6-0.5,0.8
						c-0.2,0.2-0.4,0.4-0.7,0.6c-0.3,0.2-0.5,0.4-0.8,0.5c-0.3,0.2-0.5,0.3-0.8,0.5c-0.3,0.2-0.5,0.3-0.7,0.5s-0.4,0.4-0.6,0.6
						c-0.2,0.2-0.3,0.4-0.3,0.7h4.4v0.9h-5.6c0-0.5,0.1-0.9,0.3-1.3s0.3-0.7,0.5-0.9c0.2-0.3,0.5-0.5,0.7-0.7s0.6-0.4,0.8-0.6
						c0.4-0.2,0.7-0.4,0.9-0.6c0.3-0.2,0.5-0.4,0.7-0.6s0.3-0.4,0.4-0.6c0.1-0.2,0.1-0.5,0.1-0.8c0-0.2,0-0.4-0.1-0.6
						c-0.1-0.2-0.2-0.3-0.3-0.5c-0.2-0.1-0.3-0.2-0.5-0.3c-0.2-0.1-0.4-0.1-0.6-0.1c-0.3,0-0.6,0.1-0.8,0.2s-0.4,0.3-0.5,0.5
						c-0.1,0.2-0.2,0.4-0.3,0.7s-0.1,0.5-0.1,0.8h-1C1062-1176.2,1062.1-1176.6,1062.2-1176.9"/>
				</g>
				<g>
					<defs>
						<rect id="SVGID_59_" x="904" y="-1396.5" width="531" height="552"/>
					</defs>
					<clipPath id="SVGID_60_">
						<use xlink:href="#SVGID_59_"  style="overflow:visible;"/>
					</clipPath>
					<path class="st31" d="M1068.7-1175.4c0-0.3,0.1-0.7,0.1-1c0.1-0.3,0.2-0.6,0.3-0.9s0.3-0.5,0.5-0.8c0.2-0.2,0.5-0.4,0.8-0.5
						c0.3-0.1,0.7-0.2,1.1-0.2c0.4,0,0.8,0.1,1.1,0.2c0.3,0.1,0.6,0.3,0.8,0.5c0.2,0.2,0.4,0.5,0.5,0.8s0.2,0.6,0.3,0.9
						c0.1,0.3,0.1,0.7,0.1,1c0,0.3,0,0.7,0,1c0,0.3,0,0.6,0,1c0,0.3-0.1,0.7-0.1,1c-0.1,0.3-0.2,0.6-0.3,0.9s-0.3,0.5-0.5,0.8
						c-0.2,0.2-0.5,0.4-0.8,0.5c-0.3,0.1-0.7,0.2-1.1,0.2c-0.4,0-0.8-0.1-1.1-0.2c-0.3-0.1-0.6-0.3-0.8-0.5
						c-0.2-0.2-0.4-0.5-0.5-0.8c-0.1-0.3-0.2-0.6-0.3-0.9c-0.1-0.3-0.1-0.7-0.1-1c0-0.3,0-0.7,0-1
						C1068.7-1174.7,1068.7-1175.1,1068.7-1175.4 M1069.8-1173.3c0,0.4,0.1,0.8,0.2,1.1c0.1,0.3,0.3,0.6,0.5,0.9s0.6,0.4,1,0.4
						s0.8-0.1,1-0.4s0.4-0.5,0.5-0.9s0.2-0.7,0.2-1.1c0-0.4,0-0.8,0-1.1c0-0.2,0-0.4,0-0.7c0-0.3,0-0.5-0.1-0.8
						c0-0.3-0.1-0.5-0.2-0.7c-0.1-0.2-0.2-0.4-0.3-0.6s-0.3-0.3-0.5-0.4s-0.4-0.2-0.7-0.2s-0.5,0.1-0.7,0.2
						c-0.2,0.1-0.4,0.3-0.5,0.4c-0.1,0.2-0.2,0.4-0.3,0.6c-0.1,0.2-0.1,0.5-0.2,0.7s-0.1,0.5-0.1,0.8c0,0.3,0,0.5,0,0.7
						C1069.8-1174.1,1069.8-1173.8,1069.8-1173.3"/>
				</g>
				<g>
					<defs>
						<rect id="SVGID_61_" x="904" y="-1396.5" width="531" height="552"/>
					</defs>
					<clipPath id="SVGID_62_">
						<use xlink:href="#SVGID_61_"  style="overflow:visible;"/>
					</clipPath>
					<path class="st32" d="M1076.7-1176.4v0.8h0c0.2-0.3,0.4-0.6,0.8-0.8s0.8-0.2,1.2-0.2c0.5,0,0.9,0.1,1.3,0.3s0.7,0.4,0.9,0.7
						c0.2,0.3,0.4,0.7,0.5,1s0.2,0.8,0.2,1.3s-0.1,0.8-0.2,1.3c-0.1,0.4-0.3,0.7-0.5,1c-0.2,0.3-0.5,0.5-0.9,0.7
						c-0.4,0.2-0.8,0.3-1.2,0.3c-0.2,0-0.3,0-0.5-0.1c-0.2,0-0.4-0.1-0.6-0.2c-0.2-0.1-0.4-0.2-0.5-0.3s-0.3-0.3-0.4-0.5h0v3.2h-1
						v-8.6L1076.7-1176.4L1076.7-1176.4z M1080.4-1174.2c-0.1-0.3-0.2-0.5-0.3-0.7s-0.4-0.4-0.6-0.5s-0.5-0.2-0.9-0.2
						c-0.3,0-0.6,0.1-0.9,0.2c-0.2,0.1-0.4,0.3-0.6,0.5s-0.3,0.5-0.3,0.8s-0.1,0.6-0.1,0.8c0,0.3,0,0.6,0.1,0.9
						c0.1,0.3,0.2,0.5,0.3,0.8c0.2,0.2,0.4,0.4,0.6,0.5s0.6,0.2,0.9,0.2s0.7-0.1,0.9-0.2c0.2-0.1,0.4-0.3,0.6-0.5
						c0.1-0.2,0.3-0.5,0.3-0.8s0.1-0.6,0.1-0.9C1080.5-1173.7,1080.4-1174,1080.4-1174.2"/>
				</g>
				<g>
					<defs>
						<rect id="SVGID_63_" x="904" y="-1396.5" width="531" height="552"/>
					</defs>
					<clipPath id="SVGID_64_">
						<use xlink:href="#SVGID_63_"  style="overflow:visible;"/>
					</clipPath>
					<polygon class="st33" points="1082.3,-1176.4 1083.6,-1176.4 1085.1,-1174.3 1086.6,-1176.4 1087.8,-1176.4 1085.7,-1173.6 
						1088.1,-1170.2 1086.8,-1170.2 1085.1,-1172.8 1083.3,-1170.2 1082.1,-1170.2 1084.4,-1173.5 					"/>
				</g>
				<g>
					<defs>
						<rect id="SVGID_65_" x="904" y="-1396.5" width="531" height="552"/>
					</defs>
					<clipPath id="SVGID_66_">
						<use xlink:href="#SVGID_65_"  style="overflow:visible;"/>
					</clipPath>
					<polygon class="st34" points="1239.7,-1193.2 1239.7,-1185.6 1244.2,-1185.6 1244.2,-1184.6 1238.5,-1184.6 1238.5,-1193.2 
											"/>
				</g>
				<g>
					<defs>
						<rect id="SVGID_67_" x="904" y="-1396.5" width="531" height="552"/>
					</defs>
					<clipPath id="SVGID_68_">
						<use xlink:href="#SVGID_67_"  style="overflow:visible;"/>
					</clipPath>
					<path class="st35" d="M1249.8-1184.5c-0.3,0-0.5-0.1-0.6-0.2s-0.2-0.4-0.2-0.7c-0.3,0.3-0.6,0.6-1,0.7s-0.8,0.2-1.2,0.2
						c-0.3,0-0.5,0-0.8-0.1c-0.3-0.1-0.5-0.2-0.7-0.3c-0.2-0.1-0.3-0.3-0.4-0.5c-0.1-0.2-0.2-0.5-0.2-0.8c0-0.3,0.1-0.6,0.2-0.9
						s0.3-0.4,0.5-0.5c0.2-0.1,0.4-0.3,0.7-0.3s0.5-0.1,0.8-0.2c0.3-0.1,0.6-0.1,0.8-0.1s0.5-0.1,0.7-0.1c0.2-0.1,0.3-0.1,0.5-0.2
						c0.1-0.1,0.2-0.3,0.2-0.4c0-0.2,0-0.4-0.1-0.5c-0.1-0.1-0.2-0.2-0.3-0.3c-0.1-0.1-0.3-0.1-0.4-0.1c-0.2,0-0.3,0-0.5,0
						c-0.4,0-0.8,0.1-1.1,0.3c-0.3,0.2-0.4,0.5-0.5,0.9h-1c0-0.4,0.1-0.7,0.2-1s0.3-0.5,0.6-0.6c0.2-0.2,0.5-0.3,0.8-0.3
						c0.3-0.1,0.6-0.1,1-0.1c0.3,0,0.6,0,0.8,0.1c0.3,0,0.5,0.1,0.8,0.3c0.2,0.1,0.4,0.3,0.5,0.5c0.1,0.2,0.2,0.5,0.2,0.9v3.2
						c0,0.2,0,0.4,0,0.5s0.1,0.2,0.3,0.2c0.1,0,0.2,0,0.3-0.1v0.8C1250.3-1184.6,1250.1-1184.5,1249.8-1184.5 M1248.4-1187.6
						c-0.2,0-0.4,0.1-0.7,0.1c-0.2,0-0.5,0.1-0.7,0.1c-0.2,0-0.4,0.1-0.6,0.2c-0.2,0.1-0.3,0.2-0.4,0.3c-0.1,0.2-0.2,0.3-0.2,0.6
						c0,0.2,0,0.3,0.1,0.4c0.1,0.1,0.2,0.2,0.3,0.3c0.1,0.1,0.2,0.1,0.4,0.2c0.2,0,0.3,0.1,0.4,0.1c0.3,0,0.6-0.1,0.9-0.1
						s0.4-0.2,0.6-0.3s0.3-0.3,0.3-0.5c0.1-0.2,0.1-0.3,0.1-0.5v-1.1C1248.7-1187.8,1248.6-1187.7,1248.4-1187.6"/>
				</g>
				<g>
					<defs>
						<rect id="SVGID_69_" x="904" y="-1396.5" width="531" height="552"/>
					</defs>
					<clipPath id="SVGID_70_">
						<use xlink:href="#SVGID_69_"  style="overflow:visible;"/>
					</clipPath>
					<path class="st36" d="M1252.4-1190.8v1.3h0c0.3-0.5,0.6-0.9,0.9-1.1s0.8-0.3,1.4-0.3v1.1c-0.4,0-0.8,0.1-1.1,0.2
						s-0.5,0.3-0.7,0.5c-0.2,0.2-0.3,0.5-0.4,0.8s-0.1,0.7-0.1,1.1v2.8h-1v-6.2L1252.4-1190.8L1252.4-1190.8z"/>
				</g>
				<g>
					<defs>
						<rect id="SVGID_71_" x="904" y="-1396.5" width="531" height="552"/>
					</defs>
					<clipPath id="SVGID_72_">
						<use xlink:href="#SVGID_71_"  style="overflow:visible;"/>
					</clipPath>
					<path class="st37" d="M1259.8-1182.9c-0.5,0.5-1.2,0.8-2.2,0.8c-0.3,0-0.6,0-0.9-0.1c-0.3-0.1-0.6-0.2-0.8-0.3
						c-0.2-0.2-0.4-0.3-0.6-0.6c-0.2-0.2-0.3-0.5-0.3-0.8h1c0,0.2,0.1,0.3,0.2,0.5c0.1,0.1,0.2,0.2,0.4,0.3c0.2,0.1,0.3,0.1,0.5,0.2
						c0.2,0,0.4,0.1,0.5,0.1c0.3,0,0.6-0.1,0.8-0.2c0.2-0.1,0.4-0.3,0.6-0.5c0.2-0.2,0.3-0.4,0.3-0.7s0.1-0.6,0.1-0.9v-0.4h0
						c-0.2,0.4-0.4,0.7-0.8,0.8c-0.4,0.2-0.7,0.3-1.1,0.3c-0.5,0-0.9-0.1-1.2-0.3s-0.6-0.4-0.9-0.7c-0.2-0.3-0.4-0.6-0.5-1
						c-0.1-0.4-0.2-0.8-0.2-1.2c0-0.4,0.1-0.8,0.1-1.1c0.1-0.4,0.3-0.7,0.5-1.1c0.2-0.3,0.5-0.6,0.9-0.8c0.4-0.2,0.8-0.3,1.4-0.3
						c0.4,0,0.8,0.1,1.1,0.3s0.6,0.4,0.8,0.8h0v-0.9h1v5.7C1260.5-1184.2,1260.3-1183.4,1259.8-1182.9 M1258.5-1185.7
						c0.2-0.1,0.4-0.3,0.6-0.6c0.2-0.2,0.3-0.5,0.3-0.8c0.1-0.3,0.1-0.6,0.1-0.9c0-0.3,0-0.5-0.1-0.8c-0.1-0.3-0.2-0.5-0.3-0.7
						s-0.3-0.4-0.6-0.5c-0.2-0.1-0.5-0.2-0.8-0.2c-0.3,0-0.6,0.1-0.8,0.2c-0.2,0.1-0.4,0.3-0.6,0.5c-0.2,0.2-0.3,0.4-0.3,0.7
						c-0.1,0.3-0.1,0.6-0.1,0.8c0,0.3,0,0.6,0.1,0.8c0.1,0.3,0.2,0.5,0.3,0.8s0.3,0.4,0.5,0.6c0.2,0.1,0.5,0.2,0.8,0.2
						C1258-1185.5,1258.3-1185.5,1258.5-1185.7"/>
				</g>
				<g>
					<defs>
						<rect id="SVGID_73_" x="904" y="-1396.5" width="531" height="552"/>
					</defs>
					<clipPath id="SVGID_74_">
						<use xlink:href="#SVGID_73_"  style="overflow:visible;"/>
					</clipPath>
					<path class="st38" d="M1266.4-1185c-0.5,0.3-1.1,0.5-1.8,0.5c-0.5,0-0.9-0.1-1.3-0.2s-0.7-0.4-0.9-0.7s-0.4-0.6-0.6-1
						s-0.2-0.8-0.2-1.3c0-0.5,0.1-0.9,0.2-1.3s0.3-0.7,0.6-1s0.6-0.5,0.9-0.7c0.3-0.2,0.7-0.2,1.2-0.2c0.6,0,1,0.1,1.4,0.3
						s0.7,0.5,0.9,0.9s0.4,0.7,0.5,1.2c0.1,0.4,0.1,0.8,0.1,1.2h-4.6c0,0.3,0,0.5,0.1,0.8s0.2,0.5,0.3,0.7c0.2,0.2,0.4,0.3,0.6,0.4
						s0.5,0.2,0.9,0.2c0.4,0,0.8-0.1,1.1-0.3c0.3-0.2,0.5-0.5,0.6-0.9h1C1267.2-1185.9,1266.9-1185.4,1266.4-1185 M1266.2-1189
						c-0.1-0.2-0.2-0.4-0.4-0.6c-0.2-0.2-0.3-0.3-0.6-0.4c-0.2-0.1-0.4-0.1-0.7-0.1c-0.3,0-0.5,0.1-0.7,0.1
						c-0.2,0.1-0.4,0.2-0.6,0.4c-0.2,0.2-0.3,0.3-0.4,0.6c-0.1,0.2-0.1,0.4-0.2,0.7h3.6C1266.3-1188.6,1266.3-1188.8,1266.2-1189"/>
				</g>
				<g>
					<defs>
						<rect id="SVGID_75_" x="904" y="-1396.5" width="531" height="552"/>
					</defs>
					<clipPath id="SVGID_76_">
						<use xlink:href="#SVGID_75_"  style="overflow:visible;"/>
					</clipPath>
					<path class="st39" d="M1269.4-1190.8v1.3h0c0.3-0.5,0.6-0.9,0.9-1.1s0.8-0.3,1.4-0.3v1.1c-0.4,0-0.8,0.1-1,0.2
						c-0.3,0.1-0.5,0.3-0.7,0.5c-0.2,0.2-0.3,0.5-0.4,0.8s-0.1,0.7-0.1,1.1v2.8h-1v-6.2L1269.4-1190.8L1269.4-1190.8z"/>
				</g>
				<g>
					<defs>
						<rect id="SVGID_77_" x="904" y="-1396.5" width="531" height="552"/>
					</defs>
					<clipPath id="SVGID_78_">
						<use xlink:href="#SVGID_77_"  style="overflow:visible;"/>
					</clipPath>
					<path class="st40" d="M1222.3-1175.5v-0.9h1v-0.9c0-0.5,0.2-0.9,0.4-1.2c0.3-0.3,0.7-0.4,1.3-0.4c0.1,0,0.2,0,0.3,0
						c0.1,0,0.2,0,0.3,0.1v0.9c-0.1,0-0.2-0.1-0.3-0.1s-0.2,0-0.3,0c-0.3,0-0.4,0.1-0.6,0.2c-0.1,0.1-0.2,0.3-0.2,0.6v0.9h1.2v0.9
						h-1.2v5.3h-1v-5.3L1222.3-1175.5L1222.3-1175.5z"/>
				</g>
				<g>
					<defs>
						<rect id="SVGID_79_" x="904" y="-1396.5" width="531" height="552"/>
					</defs>
					<clipPath id="SVGID_80_">
						<use xlink:href="#SVGID_79_"  style="overflow:visible;"/>
					</clipPath>
					<path class="st41" d="M1226.3-1174.6c0.1-0.4,0.3-0.7,0.6-1s0.6-0.5,0.9-0.7c0.4-0.2,0.8-0.3,1.3-0.3c0.5,0,0.9,0.1,1.3,0.3
						s0.7,0.4,0.9,0.7c0.3,0.3,0.4,0.6,0.6,1c0.1,0.4,0.2,0.8,0.2,1.3c0,0.5-0.1,0.9-0.2,1.3c-0.1,0.4-0.3,0.7-0.6,1
						c-0.3,0.3-0.6,0.5-0.9,0.7c-0.4,0.2-0.8,0.3-1.3,0.3s-0.9-0.1-1.3-0.3c-0.4-0.2-0.7-0.4-0.9-0.7s-0.4-0.6-0.6-1
						s-0.2-0.8-0.2-1.3C1226.1-1173.8,1226.2-1174.2,1226.3-1174.6 M1227.4-1172.3c0.1,0.3,0.2,0.5,0.4,0.7c0.2,0.2,0.4,0.3,0.6,0.4
						s0.5,0.2,0.8,0.2s0.5-0.1,0.8-0.2c0.2-0.1,0.4-0.3,0.6-0.4c0.2-0.2,0.3-0.4,0.4-0.7c0.1-0.3,0.2-0.6,0.2-1c0-0.4-0.1-0.7-0.2-1
						s-0.2-0.5-0.4-0.7s-0.4-0.3-0.6-0.5c-0.2-0.1-0.5-0.2-0.8-0.2s-0.5,0.1-0.8,0.2c-0.2,0.1-0.4,0.3-0.6,0.5s-0.3,0.4-0.4,0.7
						s-0.2,0.6-0.2,1S1227.3-1172.6,1227.4-1172.3"/>
				</g>
				<g>
					<defs>
						<rect id="SVGID_81_" x="904" y="-1396.5" width="531" height="552"/>
					</defs>
					<clipPath id="SVGID_82_">
						<use xlink:href="#SVGID_81_"  style="overflow:visible;"/>
					</clipPath>
					<path class="st42" d="M1234.3-1176.4v1.3h0c0.3-0.5,0.6-0.9,0.9-1.1s0.8-0.3,1.4-0.3v1.1c-0.4,0-0.8,0.1-1,0.2
						c-0.3,0.1-0.5,0.3-0.7,0.5c-0.2,0.2-0.3,0.5-0.4,0.8s-0.1,0.7-0.1,1.1v2.8h-1v-6.2L1234.3-1176.4L1234.3-1176.4z"/>
				</g>
				<g>
					<defs>
						<rect id="SVGID_83_" x="904" y="-1396.5" width="531" height="552"/>
					</defs>
					<clipPath id="SVGID_84_">
						<use xlink:href="#SVGID_83_"  style="overflow:visible;"/>
					</clipPath>
					<path class="st43" d="M1243.2-1170.2v-6.1h-2.2v-0.8c0.3,0,0.6,0,0.8-0.1c0.3,0,0.5-0.1,0.7-0.3s0.4-0.3,0.6-0.5
						s0.3-0.5,0.3-0.8h0.8v8.5H1243.2z"/>
				</g>
				<g>
					<defs>
						<rect id="SVGID_85_" x="904" y="-1396.5" width="531" height="552"/>
					</defs>
					<clipPath id="SVGID_86_">
						<use xlink:href="#SVGID_85_"  style="overflow:visible;"/>
					</clipPath>
					<path class="st44" d="M1247.3-1176.9c0.1-0.4,0.3-0.7,0.5-0.9c0.2-0.3,0.5-0.5,0.9-0.6s0.8-0.2,1.2-0.2c0.4,0,0.7,0.1,1,0.2
						c0.3,0.1,0.6,0.3,0.8,0.5c0.2,0.2,0.4,0.5,0.6,0.8c0.1,0.3,0.2,0.7,0.2,1.1c0,0.4-0.1,0.7-0.2,1c-0.1,0.3-0.3,0.6-0.5,0.8
						c-0.2,0.2-0.4,0.4-0.7,0.6s-0.5,0.4-0.8,0.5c-0.3,0.2-0.5,0.3-0.8,0.5c-0.3,0.2-0.5,0.3-0.7,0.5c-0.2,0.2-0.4,0.4-0.6,0.6
						c-0.2,0.2-0.3,0.4-0.3,0.7h4.4v0.9h-5.6c0-0.5,0.1-0.9,0.3-1.3c0.1-0.3,0.3-0.7,0.5-0.9c0.2-0.3,0.5-0.5,0.7-0.7
						s0.6-0.4,0.8-0.6c0.4-0.2,0.7-0.4,0.9-0.6c0.3-0.2,0.5-0.4,0.7-0.6s0.3-0.4,0.4-0.6c0.1-0.2,0.1-0.5,0.1-0.8
						c0-0.2-0.1-0.4-0.1-0.6c-0.1-0.2-0.2-0.3-0.3-0.5c-0.2-0.1-0.3-0.2-0.5-0.3c-0.2-0.1-0.4-0.1-0.6-0.1c-0.3,0-0.6,0.1-0.8,0.2
						c-0.2,0.1-0.4,0.3-0.5,0.5c-0.1,0.2-0.2,0.4-0.3,0.7s-0.1,0.5-0.1,0.8h-1C1247.1-1176.2,1247.1-1176.6,1247.3-1176.9"/>
				</g>
				<g>
					<defs>
						<rect id="SVGID_87_" x="904" y="-1396.5" width="531" height="552"/>
					</defs>
					<clipPath id="SVGID_88_">
						<use xlink:href="#SVGID_87_"  style="overflow:visible;"/>
					</clipPath>
					<path class="st45" d="M1253.8-1175.4c0-0.3,0.1-0.7,0.1-1c0.1-0.3,0.2-0.6,0.3-0.9s0.3-0.5,0.5-0.8s0.5-0.4,0.8-0.5
						c0.3-0.1,0.7-0.2,1.1-0.2c0.4,0,0.8,0.1,1.1,0.2c0.3,0.1,0.6,0.3,0.8,0.5c0.2,0.2,0.4,0.5,0.5,0.8s0.2,0.6,0.3,0.9
						c0.1,0.3,0.1,0.7,0.1,1c0,0.3,0,0.7,0,1c0,0.3,0,0.6,0,1c0,0.3-0.1,0.7-0.1,1c-0.1,0.3-0.2,0.6-0.3,0.9
						c-0.1,0.3-0.3,0.5-0.5,0.8c-0.2,0.2-0.5,0.4-0.8,0.5s-0.7,0.2-1.1,0.2c-0.4,0-0.8-0.1-1.1-0.2c-0.3-0.1-0.6-0.3-0.8-0.5
						c-0.2-0.2-0.4-0.5-0.5-0.8s-0.2-0.6-0.3-0.9c-0.1-0.3-0.1-0.7-0.1-1c0-0.3,0-0.7,0-1
						C1253.8-1174.7,1253.8-1175.1,1253.8-1175.4 M1254.9-1173.3c0,0.4,0.1,0.8,0.2,1.1s0.3,0.6,0.5,0.9s0.6,0.4,1,0.4
						c0.4,0,0.8-0.1,1-0.4s0.4-0.5,0.5-0.9s0.2-0.7,0.2-1.1c0-0.4,0-0.8,0-1.1c0-0.2,0-0.4,0-0.7s0-0.5-0.1-0.8
						c0-0.3-0.1-0.5-0.2-0.7c-0.1-0.2-0.2-0.4-0.3-0.6s-0.3-0.3-0.5-0.4s-0.4-0.2-0.7-0.2s-0.5,0.1-0.7,0.2s-0.4,0.3-0.5,0.4
						c-0.1,0.2-0.2,0.4-0.3,0.6c-0.1,0.2-0.1,0.5-0.2,0.7s-0.1,0.5-0.1,0.8c0,0.3,0,0.5,0,0.7
						C1254.8-1174.1,1254.8-1173.8,1254.9-1173.3"/>
				</g>
				<g>
					<defs>
						<rect id="SVGID_89_" x="904" y="-1396.5" width="531" height="552"/>
					</defs>
					<clipPath id="SVGID_90_">
						<use xlink:href="#SVGID_89_"  style="overflow:visible;"/>
					</clipPath>
					<path class="st46" d="M1261.8-1176.4v0.8h0c0.2-0.3,0.4-0.6,0.8-0.8s0.8-0.2,1.2-0.2c0.5,0,0.9,0.1,1.3,0.3
						c0.4,0.2,0.7,0.4,0.9,0.7c0.2,0.3,0.4,0.7,0.5,1c0.1,0.4,0.2,0.8,0.2,1.3s-0.1,0.9-0.2,1.3c-0.1,0.4-0.3,0.7-0.5,1
						c-0.2,0.3-0.5,0.5-0.9,0.7c-0.4,0.2-0.8,0.3-1.2,0.3c-0.2,0-0.3,0-0.5-0.1c-0.2,0-0.4-0.1-0.6-0.2c-0.2-0.1-0.4-0.2-0.5-0.3
						c-0.2-0.1-0.3-0.3-0.4-0.5h0v3.2h-1v-8.6L1261.8-1176.4L1261.8-1176.4z M1265.4-1174.2c-0.1-0.3-0.2-0.5-0.3-0.7
						s-0.3-0.4-0.6-0.5c-0.2-0.1-0.5-0.2-0.9-0.2c-0.3,0-0.6,0.1-0.9,0.2c-0.2,0.1-0.4,0.3-0.6,0.5c-0.2,0.2-0.3,0.5-0.3,0.8
						s-0.1,0.6-0.1,0.8c0,0.3,0,0.6,0.1,0.9s0.2,0.5,0.3,0.8c0.2,0.2,0.4,0.4,0.6,0.5s0.6,0.2,0.9,0.2s0.7-0.1,0.9-0.2
						c0.2-0.1,0.4-0.3,0.6-0.5c0.1-0.2,0.3-0.5,0.3-0.8s0.1-0.6,0.1-0.9C1265.5-1173.7,1265.5-1174,1265.4-1174.2"/>
				</g>
				<g>
					<defs>
						<rect id="SVGID_91_" x="904" y="-1396.5" width="531" height="552"/>
					</defs>
					<clipPath id="SVGID_92_">
						<use xlink:href="#SVGID_91_"  style="overflow:visible;"/>
					</clipPath>
					<polygon class="st47" points="1267.3,-1176.4 1268.6,-1176.4 1270.1,-1174.3 1271.7,-1176.4 1272.9,-1176.4 1270.8,-1173.6 
						1273.2,-1170.2 1271.8,-1170.2 1270.1,-1172.8 1268.4,-1170.2 1267.2,-1170.2 1269.5,-1173.5 					"/>
				</g>
				<g>
					<defs>
						<rect id="SVGID_93_" x="904" y="-1396.5" width="531" height="552"/>
					</defs>
					<clipPath id="SVGID_94_">
						<use xlink:href="#SVGID_93_"  style="overflow:visible;"/>
					</clipPath>
					<polygon class="st48" points="1283.2,-1173.7 1283.2,-1172.9 1280.6,-1172.9 1280.6,-1170.2 1279.8,-1170.2 1279.8,-1172.9 
						1277.2,-1172.9 1277.2,-1173.7 1279.8,-1173.7 1279.8,-1176.3 1280.6,-1176.3 1280.6,-1173.7 					"/>
				</g>
				<g>
					<defs>
						<rect id="SVGID_95_" x="904" y="-1396.5" width="531" height="552"/>
					</defs>
					<clipPath id="SVGID_96_">
						<use xlink:href="#SVGID_95_"  style="overflow:visible;"/>
					</clipPath>
					<path class="st49" d="M1056.6-1013.1c-9,0-16.3,7.3-16.3,16.3c0,7.2,4.7,13.3,11.1,15.5c0.8,0.2,1.1-0.3,1.1-0.8
						c0-0.4,0-1.4,0-2.8c-4.5,1-5.5-2.2-5.5-2.2c-0.7-1.9-1.8-2.4-1.8-2.4c-1.5-1,0.1-1,0.1-1c1.6,0.1,2.5,1.7,2.5,1.7
						c1.4,2.5,3.8,1.8,4.7,1.3c0.2-1,0.6-1.8,1-2.2c-3.6-0.4-7.4-1.8-7.4-8c0-1.8,0.6-3.2,1.7-4.4c-0.2-0.4-0.7-2.1,0.2-4.3
						c0,0,1.4-0.4,4.5,1.7c1.3-0.4,2.7-0.5,4.1-0.5c1.4,0,2.8,0.2,4.1,0.5c3.1-2.1,4.5-1.7,4.5-1.7c0.9,2.2,0.3,3.9,0.2,4.3
						c1,1.1,1.7,2.6,1.7,4.4c0,6.3-3.8,7.6-7.4,8c0.6,0.5,1.1,1.5,1.1,3c0,2.2,0,3.9,0,4.5c0,0.4,0.3,0.9,1.1,0.8
						c6.5-2.2,11.1-8.3,11.1-15.5C1072.9-1005.8,1065.6-1013.1,1056.6-1013.1"/>
				</g>
				<g>
					<defs>
						<rect id="SVGID_97_" x="904" y="-1396.5" width="531" height="552"/>
					</defs>
					<clipPath id="SVGID_98_">
						<use xlink:href="#SVGID_97_"  style="overflow:visible;"/>
					</clipPath>
					<path class="st50" d="M1254.6-1062.1c-33.3,0-60.4,27-60.4,60.4c0,26.7,17.3,49.3,41.3,57.3c3,0.6,4.1-1.3,4.1-2.9
						c0-1.4-0.1-6.2-0.1-11.2c-16.8,3.7-20.3-7.1-20.3-7.1c-2.8-7-6.7-8.8-6.7-8.8c-5.5-3.8,0.4-3.7,0.4-3.7
						c6.1,0.4,9.3,6.2,9.3,6.2c5.4,9.2,14.1,6.6,17.6,5c0.5-3.9,2.1-6.6,3.8-8.1c-13.4-1.5-27.5-6.7-27.5-29.8
						c0-6.6,2.4-12,6.2-16.2c-0.6-1.5-2.7-7.7,0.6-16c0,0,5.1-1.6,16.6,6.2c4.8-1.3,10-2,15.1-2c5.1,0,10.3,0.7,15.1,2
						c11.5-7.8,16.6-6.2,16.6-6.2c3.3,8.3,1.2,14.5,0.6,16c3.9,4.2,6.2,9.6,6.2,16.2c0,23.2-14.1,28.3-27.6,29.8
						c2.2,1.9,4.1,5.5,4.1,11.2c0,8.1-0.1,14.6-0.1,16.6c0,1.6,1.1,3.5,4.2,2.9c24-8,41.3-30.6,41.3-57.3
						C1315-1035.1,1288-1062.1,1254.6-1062.1"/>
				</g>
				<g>
					<defs>
						<rect id="SVGID_99_" x="904" y="-1396.5" width="531" height="552"/>
					</defs>
					<clipPath id="SVGID_100_">
						<use xlink:href="#SVGID_99_"  style="overflow:visible;"/>
					</clipPath>
					<path class="st51" d="M1217.1-975.4c-0.1,0.3-0.6,0.4-1,0.2c-0.4-0.2-0.7-0.6-0.5-0.9c0.1-0.3,0.6-0.4,1-0.2
						C1217-976.1,1217.3-975.7,1217.1-975.4"/>
				</g>
				<g>
					<defs>
						<rect id="SVGID_101_" x="904" y="-1396.5" width="531" height="552"/>
					</defs>
					<clipPath id="SVGID_102_">
						<use xlink:href="#SVGID_101_"  style="overflow:visible;"/>
					</clipPath>
					<path class="st52" d="M1219.6-972.7c-0.3,0.3-0.8,0.1-1.2-0.3c-0.4-0.4-0.5-1-0.2-1.3c0.3-0.3,0.8-0.1,1.2,0.3
						C1219.8-973.5,1219.9-973,1219.6-972.7"/>
				</g>
				<g>
					<defs>
						<rect id="SVGID_103_" x="904" y="-1396.5" width="531" height="552"/>
					</defs>
					<clipPath id="SVGID_104_">
						<use xlink:href="#SVGID_103_"  style="overflow:visible;"/>
					</clipPath>
					<path class="st53" d="M1221.9-969.2c-0.4,0.3-1,0-1.3-0.5c-0.4-0.5-0.4-1.2,0-1.4c0.4-0.3,1,0,1.3,0.5
						C1222.3-970.1,1222.3-969.5,1221.9-969.2"/>
				</g>
				<g>
					<defs>
						<rect id="SVGID_105_" x="904" y="-1396.5" width="531" height="552"/>
					</defs>
					<clipPath id="SVGID_106_">
						<use xlink:href="#SVGID_105_"  style="overflow:visible;"/>
					</clipPath>
					<path class="st54" d="M1225.2-965.8c-0.3,0.4-1,0.3-1.6-0.2c-0.5-0.5-0.7-1.2-0.3-1.5c0.3-0.4,1.1-0.3,1.6,0.2
						C1225.4-966.9,1225.6-966.2,1225.2-965.8"/>
				</g>
				<g>
					<defs>
						<rect id="SVGID_107_" x="904" y="-1396.5" width="531" height="552"/>
					</defs>
					<clipPath id="SVGID_108_">
						<use xlink:href="#SVGID_107_"  style="overflow:visible;"/>
					</clipPath>
					<path class="st55" d="M1229.7-963.9c-0.2,0.5-0.8,0.7-1.5,0.5c-0.7-0.2-1.1-0.8-1-1.2s0.8-0.7,1.5-0.5
						S1229.8-964.4,1229.7-963.9"/>
				</g>
				<g>
					<defs>
						<rect id="SVGID_109_" x="904" y="-1396.5" width="531" height="552"/>
					</defs>
					<clipPath id="SVGID_110_">
						<use xlink:href="#SVGID_109_"  style="overflow:visible;"/>
					</clipPath>
					<path class="st56" d="M1234.7-963.5c0,0.5-0.6,0.9-1.3,0.9c-0.7,0-1.3-0.4-1.3-0.9c0-0.5,0.6-0.9,1.3-0.9
						C1234.1-964.4,1234.7-964,1234.7-963.5"/>
				</g>
				<g>
					<defs>
						<rect id="SVGID_111_" x="904" y="-1396.5" width="531" height="552"/>
					</defs>
					<clipPath id="SVGID_112_">
						<use xlink:href="#SVGID_111_"  style="overflow:visible;"/>
					</clipPath>
					<path class="st57" d="M1239.3-964.3c0.1,0.5-0.4,1-1.1,1.1c-0.7,0.1-1.3-0.2-1.4-0.7c-0.1-0.5,0.4-1,1.1-1.1
						C1238.5-965.1,1239.2-964.8,1239.3-964.3"/>
				</g>
				<g>
					<defs>
						<rect id="SVGID_113_" x="904" y="-1396.5" width="531" height="552"/>
					</defs>
					<clipPath id="SVGID_114_">
						<use xlink:href="#SVGID_113_"  style="overflow:visible;"/>
					</clipPath>
					<line class="st58" x1="1128.9" y1="-1068" x2="1128.9" y2="-1067.5"/>
				</g>
				<g>
					<defs>
						<rect id="SVGID_115_" x="904" y="-1396.5" width="531" height="552"/>
					</defs>
					<clipPath id="SVGID_116_">
						<use xlink:href="#SVGID_115_"  style="overflow:visible;"/>
					</clipPath>
					<line class="st59" x1="1128.9" y1="-1065.5" x2="1128.9" y2="-931.5"/>
				</g>
				<g>
					<defs>
						<rect id="SVGID_117_" x="904" y="-1396.5" width="531" height="552"/>
					</defs>
					<clipPath id="SVGID_118_">
						<use xlink:href="#SVGID_117_"  style="overflow:visible;"/>
					</clipPath>
					<line class="st60" x1="1128.9" y1="-930.5" x2="1128.9" y2="-930"/>
				</g>
				<g>
					<defs>
						<rect id="SVGID_119_" x="904" y="-1396.5" width="531" height="552"/>
					</defs>
					<clipPath id="SVGID_120_">
						<use xlink:href="#SVGID_119_"  style="overflow:visible;"/>
					</clipPath>
					<path class="st61" d="M1037.3-916c-0.4-0.3-0.9-0.4-1.5-0.4c-0.2,0-0.5,0-0.7,0.1s-0.4,0.1-0.6,0.2s-0.3,0.3-0.4,0.5
						c-0.1,0.2-0.2,0.4-0.2,0.7c0,0.3,0.1,0.5,0.2,0.6c0.2,0.2,0.4,0.3,0.6,0.4s0.6,0.2,0.9,0.3s0.7,0.1,1,0.2
						c0.3,0.1,0.7,0.2,1,0.3c0.3,0.1,0.6,0.3,0.9,0.4c0.3,0.2,0.5,0.4,0.6,0.7c0.2,0.3,0.2,0.6,0.2,1.1c0,0.5-0.1,0.8-0.3,1.2
						c-0.2,0.3-0.5,0.6-0.8,0.8c-0.3,0.2-0.7,0.3-1.1,0.4c-0.4,0.1-0.8,0.1-1.2,0.1c-0.5,0-0.9-0.1-1.4-0.2s-0.8-0.3-1.1-0.5
						c-0.3-0.2-0.6-0.6-0.8-0.9s-0.3-0.8-0.3-1.3h1.1c0,0.4,0.1,0.7,0.2,0.9s0.3,0.5,0.6,0.6c0.2,0.2,0.5,0.3,0.8,0.4
						c0.3,0.1,0.6,0.1,0.9,0.1c0.3,0,0.5,0,0.8-0.1s0.5-0.1,0.7-0.3s0.4-0.3,0.5-0.5c0.1-0.2,0.2-0.5,0.2-0.8c0-0.3-0.1-0.5-0.2-0.7
						c-0.2-0.2-0.4-0.3-0.6-0.5s-0.6-0.2-0.9-0.3s-0.7-0.2-1-0.2c-0.3-0.1-0.7-0.2-1-0.3s-0.6-0.2-0.9-0.4s-0.5-0.4-0.6-0.6
						c-0.2-0.3-0.2-0.6-0.2-1c0-0.4,0.1-0.8,0.3-1.1c0.2-0.3,0.4-0.6,0.7-0.8c0.3-0.2,0.6-0.4,1-0.5c0.4-0.1,0.8-0.2,1.2-0.2
						c0.4,0,0.8,0,1.2,0.2c0.4,0.1,0.7,0.3,1,0.5s0.5,0.5,0.7,0.8c0.2,0.3,0.3,0.8,0.3,1.2h-1.1
						C1037.9-915.3,1037.7-915.8,1037.3-916"/>
				</g>
				<g>
					<defs>
						<rect id="SVGID_121_" x="904" y="-1396.5" width="531" height="552"/>
					</defs>
					<clipPath id="SVGID_122_">
						<use xlink:href="#SVGID_121_"  style="overflow:visible;"/>
					</clipPath>
					<path class="st62" d="M1041.6-914.8v0.9h0c0.5-0.7,1.1-1.1,2-1.1c0.4,0,0.7,0.1,1,0.2s0.5,0.4,0.7,0.8c0.2-0.3,0.5-0.6,0.8-0.8
						c0.3-0.2,0.7-0.3,1.1-0.3c0.3,0,0.6,0,0.8,0.1c0.3,0.1,0.5,0.2,0.7,0.3s0.3,0.3,0.4,0.6c0.1,0.2,0.2,0.5,0.2,0.8v4.5h-1v-4.1
						c0-0.2,0-0.4-0.1-0.5s-0.1-0.3-0.2-0.4c-0.1-0.1-0.2-0.2-0.4-0.3s-0.4-0.1-0.6-0.1c-0.5,0-0.9,0.1-1.2,0.4
						c-0.3,0.3-0.4,0.7-0.4,1.2v3.9h-1v-4.1c0-0.2,0-0.4-0.1-0.5c0-0.2-0.1-0.3-0.2-0.4s-0.2-0.2-0.3-0.3c-0.2-0.1-0.3-0.1-0.6-0.1
						c-0.3,0-0.6,0.1-0.8,0.2s-0.4,0.3-0.5,0.4c-0.1,0.2-0.2,0.3-0.3,0.5s-0.1,0.3-0.1,0.5v3.9h-1v-6.2L1041.6-914.8L1041.6-914.8z"
						/>
				</g>
				<g>
					<defs>
						<rect id="SVGID_123_" x="904" y="-1396.5" width="531" height="552"/>
					</defs>
					<clipPath id="SVGID_124_">
						<use xlink:href="#SVGID_123_"  style="overflow:visible;"/>
					</clipPath>
					<path class="st63" d="M1055.6-908.5c-0.3,0-0.5-0.1-0.6-0.2c-0.2-0.2-0.2-0.4-0.2-0.7c-0.3,0.3-0.6,0.6-1,0.7
						c-0.4,0.2-0.8,0.2-1.2,0.2c-0.3,0-0.5,0-0.8-0.1s-0.5-0.2-0.7-0.3c-0.2-0.1-0.3-0.3-0.4-0.5c-0.1-0.2-0.2-0.5-0.2-0.8
						c0-0.3,0.1-0.6,0.2-0.9s0.3-0.4,0.5-0.5c0.2-0.1,0.4-0.3,0.7-0.3s0.5-0.1,0.8-0.2c0.3,0,0.6-0.1,0.8-0.1s0.5-0.1,0.7-0.1
						c0.2,0,0.3-0.1,0.5-0.2c0.1-0.1,0.2-0.3,0.2-0.4c0-0.2,0-0.4-0.1-0.5c-0.1-0.1-0.2-0.2-0.3-0.3s-0.3-0.1-0.4-0.2
						c-0.2,0-0.3,0-0.5,0c-0.4,0-0.8,0.1-1.1,0.3s-0.4,0.5-0.5,0.9h-1c0-0.4,0.1-0.7,0.2-1c0.1-0.3,0.3-0.5,0.6-0.6
						c0.2-0.2,0.5-0.3,0.8-0.3c0.3-0.1,0.6-0.1,1-0.1c0.3,0,0.6,0,0.8,0.1c0.3,0,0.5,0.1,0.8,0.3c0.2,0.1,0.4,0.3,0.5,0.5
						s0.2,0.5,0.2,0.9v3.2c0,0.2,0,0.4,0,0.5c0,0.1,0.1,0.2,0.3,0.2c0.1,0,0.2,0,0.3-0.1v0.8
						C1056.2-908.6,1055.9-908.5,1055.6-908.5 M1054.2-911.6c-0.2,0-0.4,0.1-0.7,0.1c-0.2,0-0.5,0.1-0.7,0.1c-0.2,0-0.4,0.1-0.6,0.2
						c-0.2,0.1-0.3,0.2-0.4,0.3s-0.2,0.3-0.2,0.6c0,0.2,0,0.3,0.1,0.4s0.2,0.2,0.3,0.3c0.1,0.1,0.2,0.1,0.4,0.2c0.2,0,0.3,0,0.4,0
						c0.3,0,0.6,0,0.9-0.1c0.2-0.1,0.4-0.2,0.6-0.3c0.2-0.1,0.3-0.3,0.3-0.5c0.1-0.2,0.1-0.3,0.1-0.5v-1
						C1054.6-911.7,1054.4-911.7,1054.2-911.6"/>
				</g>
				<g>
					<defs>
						<rect id="SVGID_125_" x="904" y="-1396.5" width="531" height="552"/>
					</defs>
					<clipPath id="SVGID_126_">
						<use xlink:href="#SVGID_125_"  style="overflow:visible;"/>
					</clipPath>
					<rect x="1057.4" y="-917.2" class="st64" width="1" height="8.6"/>
				</g>
				<g>
					<defs>
						<rect id="SVGID_127_" x="904" y="-1396.5" width="531" height="552"/>
					</defs>
					<clipPath id="SVGID_128_">
						<use xlink:href="#SVGID_127_"  style="overflow:visible;"/>
					</clipPath>
					<rect x="1060" y="-917.2" class="st65" width="1" height="8.6"/>
				</g>
				<g>
					<defs>
						<rect id="SVGID_129_" x="904" y="-1396.5" width="531" height="552"/>
					</defs>
					<clipPath id="SVGID_130_">
						<use xlink:href="#SVGID_129_"  style="overflow:visible;"/>
					</clipPath>
					<path class="st66" d="M1005.9-899.5v-0.9h1v-0.9c0-0.5,0.2-0.9,0.4-1.2s0.7-0.4,1.3-0.4c0.1,0,0.2,0,0.3,0c0.1,0,0.2,0,0.3,0.1
						v0.9c-0.1,0-0.2,0-0.3-0.1c-0.1,0-0.2,0-0.3,0c-0.3,0-0.4,0-0.6,0.1s-0.2,0.3-0.2,0.5v0.9h1.2v0.9h-1.2v5.3h-1v-5.3
						L1005.9-899.5L1005.9-899.5z"/>
				</g>
				<g>
					<defs>
						<rect id="SVGID_131_" x="904" y="-1396.5" width="531" height="552"/>
					</defs>
					<clipPath id="SVGID_132_">
						<use xlink:href="#SVGID_131_"  style="overflow:visible;"/>
					</clipPath>
					<path class="st67" d="M1009.9-898.6c0.1-0.4,0.3-0.7,0.6-1c0.3-0.3,0.6-0.5,1-0.7s0.8-0.3,1.3-0.3c0.5,0,0.9,0.1,1.3,0.3
						s0.7,0.4,0.9,0.7c0.3,0.3,0.5,0.6,0.6,1c0.1,0.4,0.2,0.8,0.2,1.3s-0.1,0.9-0.2,1.3s-0.3,0.7-0.6,1c-0.3,0.3-0.6,0.5-0.9,0.7
						s-0.8,0.3-1.3,0.3s-0.9-0.1-1.3-0.3c-0.4-0.2-0.7-0.4-1-0.7s-0.5-0.6-0.6-1c-0.1-0.4-0.2-0.8-0.2-1.3
						C1009.7-897.8,1009.8-898.2,1009.9-898.6 M1011-896.3c0.1,0.3,0.2,0.5,0.4,0.7c0.2,0.2,0.4,0.3,0.6,0.5
						c0.2,0.1,0.5,0.2,0.8,0.2s0.5,0,0.8-0.2c0.2-0.1,0.4-0.3,0.6-0.5s0.3-0.4,0.4-0.7s0.2-0.6,0.2-1c0-0.4,0-0.7-0.2-1
						c-0.1-0.3-0.2-0.5-0.4-0.7c-0.2-0.2-0.4-0.3-0.6-0.5c-0.2-0.1-0.5-0.2-0.8-0.2s-0.5,0-0.8,0.2c-0.2,0.1-0.4,0.3-0.6,0.5
						s-0.3,0.5-0.4,0.7s-0.2,0.6-0.2,1S1010.8-896.6,1011-896.3"/>
				</g>
				<g>
					<defs>
						<rect id="SVGID_133_" x="904" y="-1396.5" width="531" height="552"/>
					</defs>
					<clipPath id="SVGID_134_">
						<use xlink:href="#SVGID_133_"  style="overflow:visible;"/>
					</clipPath>
					<path class="st68" d="M1017.9-900.4v1.3h0c0.3-0.5,0.5-0.9,0.9-1.1s0.8-0.3,1.4-0.3v1.1c-0.4,0-0.8,0.1-1,0.2
						c-0.3,0.1-0.5,0.3-0.7,0.5c-0.2,0.2-0.3,0.5-0.4,0.8c-0.1,0.3-0.1,0.7-0.1,1.1v2.8h-1v-6.2L1017.9-900.4L1017.9-900.4z"/>
				</g>
				<g>
					<defs>
						<rect id="SVGID_135_" x="904" y="-1396.5" width="531" height="552"/>
					</defs>
					<clipPath id="SVGID_136_">
						<use xlink:href="#SVGID_135_"  style="overflow:visible;"/>
					</clipPath>
					<path class="st69" d="M1026.8-894.2v-6.1h-2.2v-0.8c0.3,0,0.6,0,0.8-0.1c0.3,0,0.5-0.1,0.7-0.3s0.4-0.3,0.6-0.5
						c0.2-0.2,0.3-0.5,0.3-0.8h0.8v8.5L1026.8-894.2L1026.8-894.2z"/>
				</g>
				<g>
					<defs>
						<rect id="SVGID_137_" x="904" y="-1396.5" width="531" height="552"/>
					</defs>
					<clipPath id="SVGID_138_">
						<use xlink:href="#SVGID_137_"  style="overflow:visible;"/>
					</clipPath>
					<path class="st70" d="M1034.7-901.5c-0.3-0.2-0.6-0.3-1-0.3c-0.4,0-0.8,0.1-1,0.3s-0.5,0.5-0.6,0.8s-0.3,0.7-0.3,1
						s-0.1,0.7-0.1,1.1l0,0c0.2-0.4,0.5-0.7,0.9-0.8c0.4-0.2,0.8-0.3,1.2-0.3c0.4,0,0.8,0.1,1.1,0.2c0.3,0.1,0.6,0.3,0.8,0.6
						s0.4,0.5,0.5,0.9s0.2,0.7,0.2,1.1c0,0.3-0.1,0.6-0.1,1c-0.1,0.3-0.3,0.6-0.5,0.9s-0.5,0.5-0.9,0.7c-0.4,0.2-0.8,0.3-1.3,0.3
						c-0.6,0-1.1-0.1-1.5-0.4c-0.4-0.3-0.7-0.6-0.9-1c-0.2-0.4-0.3-0.8-0.4-1.3c-0.1-0.5-0.1-0.9-0.1-1.4c0-0.6,0.1-1.2,0.2-1.7
						s0.3-1,0.5-1.5c0.2-0.4,0.6-0.8,1-1c0.4-0.3,0.9-0.4,1.5-0.4c0.7,0,1.3,0.2,1.7,0.6s0.7,0.9,0.7,1.6h-1
						C1035.1-901,1035-901.3,1034.7-901.5 M1032.9-898.7c-0.2,0.1-0.4,0.2-0.6,0.4s-0.3,0.4-0.3,0.6c-0.1,0.2-0.1,0.5-0.1,0.8
						s0,0.5,0.1,0.7s0.2,0.4,0.3,0.6s0.3,0.3,0.6,0.4c0.2,0.1,0.5,0.2,0.8,0.2s0.5,0,0.7-0.2c0.2-0.1,0.4-0.2,0.5-0.4
						c0.1-0.2,0.3-0.4,0.3-0.6s0.1-0.5,0.1-0.7c0-0.3,0-0.5-0.1-0.8c-0.1-0.2-0.2-0.4-0.3-0.6s-0.3-0.3-0.5-0.4
						c-0.2-0.1-0.5-0.2-0.8-0.2S1033.1-898.8,1032.9-898.7"/>
				</g>
				<g>
					<defs>
						<rect id="SVGID_139_" x="904" y="-1396.5" width="531" height="552"/>
					</defs>
					<clipPath id="SVGID_140_">
						<use xlink:href="#SVGID_139_"  style="overflow:visible;"/>
					</clipPath>
					<path class="st71" d="M1038.7-900.4v0.8h0c0.2-0.3,0.4-0.6,0.8-0.8s0.8-0.2,1.2-0.2c0.5,0,0.9,0.1,1.3,0.3
						c0.4,0.2,0.7,0.4,0.9,0.7c0.2,0.3,0.4,0.7,0.5,1c0.1,0.4,0.2,0.8,0.2,1.3s-0.1,0.9-0.2,1.3c-0.1,0.4-0.3,0.7-0.5,1
						c-0.2,0.3-0.5,0.5-0.9,0.7s-0.8,0.3-1.2,0.3c-0.2,0-0.3,0-0.5,0c-0.2,0-0.4-0.1-0.6-0.2c-0.2-0.1-0.4-0.2-0.5-0.3
						s-0.3-0.3-0.4-0.5h0v3.2h-1v-8.6L1038.7-900.4L1038.7-900.4z M1042.3-898.2c-0.1-0.3-0.2-0.5-0.3-0.7s-0.4-0.4-0.6-0.5
						s-0.5-0.2-0.9-0.2c-0.3,0-0.6,0.1-0.9,0.2c-0.2,0.1-0.4,0.3-0.6,0.5c-0.2,0.2-0.3,0.5-0.3,0.8s-0.1,0.6-0.1,0.8
						c0,0.3,0,0.6,0.1,0.9c0.1,0.3,0.2,0.5,0.3,0.8c0.2,0.2,0.4,0.4,0.6,0.5s0.6,0.2,0.9,0.2s0.7-0.1,0.9-0.2
						c0.2-0.1,0.4-0.3,0.6-0.5c0.2-0.2,0.3-0.5,0.3-0.8c0.1-0.3,0.1-0.6,0.1-0.9C1042.5-897.7,1042.4-898,1042.3-898.2"/>
				</g>
				<g>
					<defs>
						<rect id="SVGID_141_" x="904" y="-1396.5" width="531" height="552"/>
					</defs>
					<clipPath id="SVGID_142_">
						<use xlink:href="#SVGID_141_"  style="overflow:visible;"/>
					</clipPath>
					<polygon class="st72" points="1044.3,-900.4 1045.6,-900.4 1047,-898.3 1048.6,-900.4 1049.8,-900.4 1047.7,-897.6 
						1050.1,-894.2 1048.8,-894.2 1047,-896.8 1045.3,-894.2 1044.1,-894.2 1046.4,-897.5 					"/>
				</g>
				<g>
					<defs>
						<rect id="SVGID_143_" x="904" y="-1396.5" width="531" height="552"/>
					</defs>
					<clipPath id="SVGID_144_">
						<use xlink:href="#SVGID_143_"  style="overflow:visible;"/>
					</clipPath>
					<rect x="1050.8" y="-898" class="st73" width="3.5" height="1"/>
				</g>
				<g>
					<defs>
						<rect id="SVGID_145_" x="904" y="-1396.5" width="531" height="552"/>
					</defs>
					<clipPath id="SVGID_146_">
						<use xlink:href="#SVGID_145_"  style="overflow:visible;"/>
					</clipPath>
					<path class="st74" d="M1058.1-894.2v-6.1h-2.2v-0.8c0.3,0,0.6,0,0.8-0.1c0.3,0,0.5-0.1,0.7-0.3s0.4-0.3,0.6-0.5
						c0.2-0.2,0.3-0.5,0.3-0.8h0.8v8.5L1058.1-894.2L1058.1-894.2z"/>
				</g>
				<g>
					<defs>
						<rect id="SVGID_147_" x="904" y="-1396.5" width="531" height="552"/>
					</defs>
					<clipPath id="SVGID_148_">
						<use xlink:href="#SVGID_147_"  style="overflow:visible;"/>
					</clipPath>
					<path class="st75" d="M1062.2-900.9c0.1-0.4,0.3-0.7,0.5-1c0.2-0.3,0.5-0.5,0.9-0.6s0.8-0.2,1.2-0.2c0.4,0,0.7,0,1,0.2
						c0.3,0.1,0.6,0.3,0.8,0.5c0.2,0.2,0.4,0.5,0.6,0.8c0.1,0.3,0.2,0.7,0.2,1.1c0,0.4-0.1,0.7-0.2,1c-0.1,0.3-0.3,0.5-0.5,0.8
						c-0.2,0.2-0.4,0.4-0.7,0.6c-0.3,0.2-0.5,0.4-0.8,0.5c-0.3,0.2-0.5,0.3-0.8,0.5c-0.3,0.2-0.5,0.3-0.7,0.5s-0.4,0.4-0.6,0.6
						c-0.2,0.2-0.3,0.4-0.3,0.7h4.4v0.9h-5.6c0-0.5,0.1-0.9,0.3-1.3s0.3-0.7,0.5-0.9c0.2-0.3,0.5-0.5,0.7-0.7
						c0.3-0.2,0.6-0.4,0.8-0.6c0.4-0.2,0.7-0.4,0.9-0.6c0.3-0.2,0.5-0.4,0.7-0.6s0.3-0.4,0.4-0.6c0.1-0.2,0.1-0.5,0.1-0.8
						c0-0.2,0-0.4-0.1-0.6s-0.2-0.3-0.3-0.5c-0.2-0.1-0.3-0.2-0.5-0.3c-0.2-0.1-0.4-0.1-0.6-0.1c-0.3,0-0.6,0.1-0.8,0.2
						s-0.4,0.3-0.5,0.5c-0.1,0.2-0.2,0.4-0.3,0.7s-0.1,0.5-0.1,0.8h-1C1062-900.2,1062.1-900.6,1062.2-900.9"/>
				</g>
				<g>
					<defs>
						<rect id="SVGID_149_" x="904" y="-1396.5" width="531" height="552"/>
					</defs>
					<clipPath id="SVGID_150_">
						<use xlink:href="#SVGID_149_"  style="overflow:visible;"/>
					</clipPath>
					<path class="st76" d="M1068.7-899.4c0-0.3,0.1-0.7,0.1-1c0.1-0.3,0.2-0.6,0.3-0.9c0.1-0.3,0.3-0.5,0.5-0.8
						c0.2-0.2,0.5-0.4,0.8-0.5c0.3-0.1,0.7-0.2,1.1-0.2c0.4,0,0.8,0.1,1.1,0.2c0.3,0.1,0.6,0.3,0.8,0.5c0.2,0.2,0.4,0.5,0.5,0.8
						c0.1,0.3,0.2,0.6,0.3,0.9c0.1,0.3,0.1,0.7,0.1,1s0,0.7,0,1s0,0.6,0,1s-0.1,0.7-0.1,1c-0.1,0.3-0.2,0.6-0.3,0.9
						c-0.1,0.3-0.3,0.5-0.5,0.8s-0.5,0.4-0.8,0.5c-0.3,0.1-0.7,0.2-1.1,0.2c-0.4,0-0.8-0.1-1.1-0.2c-0.3-0.1-0.6-0.3-0.8-0.5
						c-0.2-0.2-0.4-0.5-0.5-0.8s-0.2-0.6-0.3-0.9s-0.1-0.7-0.1-1s0-0.7,0-1C1068.7-898.7,1068.7-899,1068.7-899.4 M1069.8-897.3
						c0,0.4,0.1,0.8,0.2,1.1c0.1,0.3,0.3,0.6,0.5,0.9s0.6,0.4,1,0.4s0.8-0.1,1-0.4s0.4-0.5,0.5-0.9s0.2-0.7,0.2-1.1s0-0.8,0-1.1
						c0-0.2,0-0.4,0-0.7c0-0.3,0-0.5-0.1-0.8c0-0.3-0.1-0.5-0.2-0.7c-0.1-0.2-0.2-0.5-0.3-0.6s-0.3-0.3-0.5-0.4s-0.4-0.2-0.7-0.2
						s-0.5,0.1-0.7,0.2s-0.4,0.3-0.5,0.4s-0.2,0.4-0.3,0.6c-0.1,0.2-0.1,0.5-0.2,0.7s-0.1,0.5-0.1,0.8c0,0.3,0,0.5,0,0.7
						C1069.8-898.1,1069.8-897.8,1069.8-897.3"/>
				</g>
				<g>
					<defs>
						<rect id="SVGID_151_" x="904" y="-1396.5" width="531" height="552"/>
					</defs>
					<clipPath id="SVGID_152_">
						<use xlink:href="#SVGID_151_"  style="overflow:visible;"/>
					</clipPath>
					<path class="st77" d="M1076.7-900.4v0.8h0c0.2-0.3,0.4-0.6,0.8-0.8s0.8-0.2,1.2-0.2c0.5,0,0.9,0.1,1.3,0.3
						c0.4,0.2,0.7,0.4,0.9,0.7c0.2,0.3,0.4,0.7,0.5,1c0.1,0.4,0.2,0.8,0.2,1.3s-0.1,0.9-0.2,1.3c-0.1,0.4-0.3,0.7-0.5,1
						c-0.2,0.3-0.5,0.5-0.9,0.7s-0.8,0.3-1.2,0.3c-0.2,0-0.3,0-0.5,0c-0.2,0-0.4-0.1-0.6-0.2c-0.2-0.1-0.4-0.2-0.5-0.3
						s-0.3-0.3-0.4-0.5h0v3.2h-1v-8.6L1076.7-900.4L1076.7-900.4z M1080.4-898.2c-0.1-0.3-0.2-0.5-0.3-0.7s-0.4-0.4-0.6-0.5
						s-0.5-0.2-0.9-0.2c-0.3,0-0.6,0.1-0.9,0.2c-0.2,0.1-0.4,0.3-0.6,0.5c-0.2,0.2-0.3,0.5-0.3,0.8s-0.1,0.6-0.1,0.8
						c0,0.3,0,0.6,0.1,0.9c0.1,0.3,0.2,0.5,0.3,0.8c0.2,0.2,0.4,0.4,0.6,0.5s0.6,0.2,0.9,0.2s0.7-0.1,0.9-0.2
						c0.2-0.1,0.4-0.3,0.6-0.5c0.1-0.2,0.3-0.5,0.3-0.8c0.1-0.3,0.1-0.6,0.1-0.9C1080.5-897.7,1080.4-898,1080.4-898.2"/>
				</g>
				<g>
					<defs>
						<rect id="SVGID_153_" x="904" y="-1396.5" width="531" height="552"/>
					</defs>
					<clipPath id="SVGID_154_">
						<use xlink:href="#SVGID_153_"  style="overflow:visible;"/>
					</clipPath>
					<polygon class="st78" points="1082.3,-900.4 1083.6,-900.4 1085.1,-898.3 1086.6,-900.4 1087.8,-900.4 1085.7,-897.6 
						1088.1,-894.2 1086.8,-894.2 1085.1,-896.8 1083.3,-894.2 1082.1,-894.2 1084.4,-897.5 					"/>
				</g>
				<g>
					<defs>
						<rect id="SVGID_155_" x="904" y="-1396.5" width="531" height="552"/>
					</defs>
					<clipPath id="SVGID_156_">
						<use xlink:href="#SVGID_155_"  style="overflow:visible;"/>
					</clipPath>
					<polygon class="st79" points="1239.7,-917.2 1239.7,-909.6 1244.2,-909.6 1244.2,-908.6 1238.5,-908.6 1238.5,-917.2 					"/>
				</g>
				<g>
					<defs>
						<rect id="SVGID_157_" x="904" y="-1396.5" width="531" height="552"/>
					</defs>
					<clipPath id="SVGID_158_">
						<use xlink:href="#SVGID_157_"  style="overflow:visible;"/>
					</clipPath>
					<path class="st80" d="M1249.8-908.5c-0.3,0-0.5-0.1-0.6-0.2c-0.2-0.2-0.2-0.4-0.2-0.7c-0.3,0.3-0.6,0.6-1,0.7
						c-0.4,0.2-0.8,0.2-1.2,0.2c-0.3,0-0.5,0-0.8-0.1s-0.5-0.2-0.7-0.3c-0.2-0.1-0.3-0.3-0.4-0.5c-0.1-0.2-0.2-0.5-0.2-0.8
						c0-0.3,0.1-0.6,0.2-0.9s0.3-0.4,0.5-0.5c0.2-0.1,0.4-0.3,0.7-0.3s0.5-0.1,0.8-0.2c0.3-0.1,0.6-0.1,0.8-0.1s0.5-0.1,0.7-0.1
						c0.2,0,0.3-0.1,0.5-0.2c0.1-0.1,0.2-0.3,0.2-0.4c0-0.2,0-0.4-0.1-0.5c-0.1-0.1-0.2-0.2-0.3-0.3s-0.3-0.1-0.4-0.1
						c-0.2,0-0.3,0-0.5,0c-0.4,0-0.8,0.1-1.1,0.3c-0.3,0.2-0.4,0.5-0.5,0.9h-1c0-0.4,0.1-0.7,0.2-1c0.1-0.3,0.3-0.5,0.6-0.6
						c0.2-0.2,0.5-0.3,0.8-0.3c0.3-0.1,0.6-0.1,1-0.1c0.3,0,0.6,0,0.8,0.1c0.3,0,0.5,0.1,0.8,0.3c0.2,0.1,0.4,0.3,0.5,0.5
						c0.1,0.2,0.2,0.5,0.2,0.9v3.2c0,0.2,0,0.4,0,0.5c0,0.1,0.1,0.2,0.3,0.2c0.1,0,0.2,0,0.3-0.1v0.8
						C1250.3-908.6,1250.1-908.5,1249.8-908.5 M1248.4-911.6c-0.2,0-0.4,0.1-0.7,0.1c-0.2,0-0.5,0.1-0.7,0.1s-0.4,0.1-0.6,0.2
						c-0.2,0.1-0.3,0.2-0.4,0.3c-0.1,0.2-0.2,0.3-0.2,0.6c0,0.2,0,0.3,0.1,0.4c0.1,0.1,0.2,0.2,0.3,0.3c0.1,0.1,0.2,0.1,0.4,0.2
						c0.2,0,0.3,0,0.4,0c0.3,0,0.6,0,0.9-0.1s0.4-0.2,0.6-0.3c0.2-0.1,0.3-0.3,0.3-0.5c0.1-0.2,0.1-0.3,0.1-0.5v-1
						C1248.7-911.8,1248.6-911.7,1248.4-911.6"/>
				</g>
				<g>
					<defs>
						<rect id="SVGID_159_" x="904" y="-1396.5" width="531" height="552"/>
					</defs>
					<clipPath id="SVGID_160_">
						<use xlink:href="#SVGID_159_"  style="overflow:visible;"/>
					</clipPath>
					<path class="st81" d="M1252.4-914.8v1.3h0c0.3-0.5,0.6-0.9,0.9-1.1s0.8-0.3,1.4-0.3v1.1c-0.4,0-0.8,0-1.1,0.2
						c-0.3,0.1-0.5,0.3-0.7,0.5c-0.2,0.2-0.3,0.5-0.4,0.8s-0.1,0.7-0.1,1.1v2.8h-1v-6.2L1252.4-914.8L1252.4-914.8z"/>
				</g>
				<g>
					<defs>
						<rect id="SVGID_161_" x="904" y="-1396.5" width="531" height="552"/>
					</defs>
					<clipPath id="SVGID_162_">
						<use xlink:href="#SVGID_161_"  style="overflow:visible;"/>
					</clipPath>
					<path class="st82" d="M1259.8-906.9c-0.5,0.5-1.2,0.8-2.2,0.8c-0.3,0-0.6,0-0.9-0.1c-0.3-0.1-0.6-0.2-0.8-0.3
						c-0.2-0.2-0.4-0.3-0.6-0.6c-0.2-0.2-0.3-0.5-0.3-0.8h1c0,0.2,0.1,0.3,0.2,0.5c0.1,0.1,0.2,0.2,0.4,0.3s0.3,0.1,0.5,0.2
						s0.4,0,0.5,0c0.3,0,0.6-0.1,0.8-0.2c0.2-0.1,0.4-0.3,0.6-0.5c0.2-0.2,0.3-0.5,0.3-0.7s0.1-0.6,0.1-1v-0.4h0
						c-0.2,0.4-0.4,0.7-0.8,0.8c-0.4,0.2-0.7,0.3-1.1,0.3c-0.5,0-0.9-0.1-1.2-0.3s-0.6-0.4-0.9-0.7c-0.2-0.3-0.4-0.6-0.5-1
						c-0.1-0.4-0.2-0.8-0.2-1.2c0-0.4,0.1-0.8,0.1-1.1c0.1-0.4,0.3-0.7,0.5-1.1s0.5-0.6,0.9-0.8s0.8-0.3,1.4-0.3
						c0.4,0,0.8,0.1,1.1,0.3s0.6,0.4,0.8,0.8h0v-0.9h1v5.7C1260.5-908.2,1260.3-907.4,1259.8-906.9 M1258.5-909.7
						c0.2-0.1,0.4-0.3,0.6-0.5c0.2-0.2,0.3-0.5,0.3-0.8c0.1-0.3,0.1-0.6,0.1-0.9c0-0.3,0-0.5-0.1-0.8c-0.1-0.3-0.2-0.5-0.3-0.7
						s-0.3-0.4-0.6-0.5c-0.2-0.1-0.5-0.2-0.8-0.2c-0.3,0-0.6,0.1-0.8,0.2c-0.2,0.1-0.4,0.3-0.6,0.5c-0.2,0.2-0.3,0.5-0.3,0.7
						c-0.1,0.3-0.1,0.6-0.1,0.8c0,0.3,0,0.6,0.1,0.8c0.1,0.3,0.2,0.5,0.3,0.8s0.3,0.4,0.5,0.5c0.2,0.1,0.5,0.2,0.8,0.2
						C1258-909.5,1258.3-909.5,1258.5-909.7"/>
				</g>
				<g>
					<defs>
						<rect id="SVGID_163_" x="904" y="-1396.5" width="531" height="552"/>
					</defs>
					<clipPath id="SVGID_164_">
						<use xlink:href="#SVGID_163_"  style="overflow:visible;"/>
					</clipPath>
					<path class="st83" d="M1266.4-909c-0.5,0.3-1.1,0.5-1.8,0.5c-0.5,0-0.9-0.1-1.3-0.2s-0.7-0.4-0.9-0.7s-0.4-0.6-0.6-1
						s-0.2-0.8-0.2-1.3c0-0.5,0.1-0.9,0.2-1.3c0.2-0.4,0.3-0.7,0.6-1c0.3-0.3,0.6-0.5,0.9-0.7c0.3-0.2,0.7-0.2,1.2-0.2
						c0.6,0,1,0.1,1.4,0.3c0.4,0.2,0.7,0.5,0.9,0.9s0.4,0.7,0.5,1.2c0.1,0.4,0.1,0.8,0.1,1.2h-4.6c0,0.3,0,0.5,0.1,0.8
						s0.2,0.5,0.3,0.7s0.4,0.3,0.6,0.5s0.5,0.2,0.9,0.2c0.4,0,0.8-0.1,1.1-0.3c0.3-0.2,0.5-0.5,0.6-0.9h1
						C1267.2-909.9,1266.9-909.4,1266.4-909 M1266.2-913c-0.1-0.2-0.2-0.4-0.4-0.6c-0.2-0.2-0.3-0.3-0.6-0.4
						c-0.2-0.1-0.4-0.1-0.7-0.1c-0.3,0-0.5,0-0.7,0.1c-0.2,0.1-0.4,0.2-0.6,0.4c-0.2,0.2-0.3,0.3-0.4,0.6s-0.1,0.4-0.2,0.7h3.6
						C1266.3-912.6,1266.3-912.8,1266.2-913"/>
				</g>
				<g>
					<defs>
						<rect id="SVGID_165_" x="904" y="-1396.5" width="531" height="552"/>
					</defs>
					<clipPath id="SVGID_166_">
						<use xlink:href="#SVGID_165_"  style="overflow:visible;"/>
					</clipPath>
					<path class="st84" d="M1269.4-914.8v1.3h0c0.3-0.5,0.6-0.9,0.9-1.1s0.8-0.3,1.4-0.3v1.1c-0.4,0-0.8,0-1,0.2
						c-0.3,0.1-0.5,0.3-0.7,0.5c-0.2,0.2-0.3,0.5-0.4,0.8s-0.1,0.7-0.1,1.1v2.8h-1v-6.2L1269.4-914.8L1269.4-914.8z"/>
				</g>
				<g>
					<defs>
						<rect id="SVGID_167_" x="904" y="-1396.5" width="531" height="552"/>
					</defs>
					<clipPath id="SVGID_168_">
						<use xlink:href="#SVGID_167_"  style="overflow:visible;"/>
					</clipPath>
					<path class="st85" d="M1222.3-899.5v-0.9h1v-0.9c0-0.5,0.2-0.9,0.4-1.2c0.3-0.3,0.7-0.4,1.3-0.4c0.1,0,0.2,0,0.3,0
						c0.1,0,0.2,0,0.3,0.1v0.9c-0.1,0-0.2,0-0.3-0.1c-0.1,0-0.2,0-0.3,0c-0.3,0-0.4,0-0.6,0.2c-0.1,0.1-0.2,0.3-0.2,0.5v0.9h1.2v0.9
						h-1.2v5.3h-1v-5.3L1222.3-899.5L1222.3-899.5z"/>
				</g>
				<g>
					<defs>
						<rect id="SVGID_169_" x="904" y="-1396.5" width="531" height="552"/>
					</defs>
					<clipPath id="SVGID_170_">
						<use xlink:href="#SVGID_169_"  style="overflow:visible;"/>
					</clipPath>
					<path class="st86" d="M1226.3-898.6c0.1-0.4,0.3-0.7,0.6-1c0.3-0.3,0.6-0.5,0.9-0.7s0.8-0.3,1.3-0.3c0.5,0,0.9,0.1,1.3,0.3
						s0.7,0.4,0.9,0.7c0.3,0.3,0.4,0.6,0.6,1c0.1,0.4,0.2,0.8,0.2,1.3s-0.1,0.9-0.2,1.3c-0.1,0.4-0.3,0.7-0.6,1
						c-0.3,0.3-0.6,0.5-0.9,0.7s-0.8,0.3-1.3,0.3s-0.9-0.1-1.3-0.3c-0.4-0.2-0.7-0.4-0.9-0.7s-0.4-0.6-0.6-1
						c-0.1-0.4-0.2-0.8-0.2-1.3C1226.1-897.8,1226.2-898.2,1226.3-898.6 M1227.4-896.3c0.1,0.3,0.2,0.5,0.4,0.7
						c0.2,0.2,0.4,0.3,0.6,0.5c0.2,0.1,0.5,0.2,0.8,0.2s0.5,0,0.8-0.2s0.4-0.3,0.6-0.5s0.3-0.4,0.4-0.7c0.1-0.3,0.2-0.6,0.2-1
						c0-0.4-0.1-0.7-0.2-1s-0.2-0.5-0.4-0.7s-0.4-0.3-0.6-0.5c-0.2-0.1-0.5-0.2-0.8-0.2s-0.5,0-0.8,0.2c-0.2,0.1-0.4,0.3-0.6,0.5
						s-0.3,0.5-0.4,0.7s-0.2,0.6-0.2,1S1227.3-896.6,1227.4-896.3"/>
				</g>
				<g>
					<defs>
						<rect id="SVGID_171_" x="904" y="-1396.5" width="531" height="552"/>
					</defs>
					<clipPath id="SVGID_172_">
						<use xlink:href="#SVGID_171_"  style="overflow:visible;"/>
					</clipPath>
					<path class="st87" d="M1234.3-900.4v1.3h0c0.3-0.5,0.6-0.9,0.9-1.1s0.8-0.3,1.4-0.3v1.1c-0.4,0-0.8,0.1-1,0.2
						c-0.3,0.1-0.5,0.3-0.7,0.5c-0.2,0.2-0.3,0.5-0.4,0.8s-0.1,0.7-0.1,1.1v2.8h-1v-6.2L1234.3-900.4L1234.3-900.4z"/>
				</g>
				<g>
					<defs>
						<rect id="SVGID_173_" x="904" y="-1396.5" width="531" height="552"/>
					</defs>
					<clipPath id="SVGID_174_">
						<use xlink:href="#SVGID_173_"  style="overflow:visible;"/>
					</clipPath>
					<path class="st88" d="M1243.2-894.2v-6.1h-2.2v-0.8c0.3,0,0.6,0,0.8-0.1c0.3,0,0.5-0.1,0.7-0.3s0.4-0.3,0.6-0.5
						c0.2-0.2,0.3-0.5,0.3-0.8h0.8v8.5L1243.2-894.2L1243.2-894.2z"/>
				</g>
				<g>
					<defs>
						<rect id="SVGID_175_" x="904" y="-1396.5" width="531" height="552"/>
					</defs>
					<clipPath id="SVGID_176_">
						<use xlink:href="#SVGID_175_"  style="overflow:visible;"/>
					</clipPath>
					<path class="st89" d="M1247.3-900.9c0.1-0.4,0.3-0.7,0.5-1c0.2-0.3,0.5-0.5,0.9-0.6s0.8-0.2,1.2-0.2c0.4,0,0.7,0,1,0.2
						c0.3,0.1,0.6,0.3,0.8,0.5c0.2,0.2,0.4,0.5,0.6,0.8c0.1,0.3,0.2,0.7,0.2,1.1c0,0.4-0.1,0.7-0.2,1c-0.1,0.3-0.3,0.5-0.5,0.8
						c-0.2,0.2-0.4,0.4-0.7,0.6c-0.3,0.2-0.5,0.4-0.8,0.5c-0.3,0.2-0.5,0.3-0.8,0.5c-0.3,0.2-0.5,0.3-0.7,0.5
						c-0.2,0.2-0.4,0.4-0.6,0.6c-0.2,0.2-0.3,0.4-0.3,0.7h4.4v0.9h-5.6c0-0.5,0.1-0.9,0.3-1.3s0.3-0.7,0.5-0.9
						c0.2-0.3,0.5-0.5,0.7-0.7s0.6-0.4,0.8-0.6c0.4-0.2,0.7-0.4,0.9-0.6c0.3-0.2,0.5-0.4,0.7-0.6s0.3-0.4,0.4-0.6
						c0.1-0.2,0.1-0.5,0.1-0.8c0-0.2-0.1-0.4-0.1-0.6c-0.1-0.2-0.2-0.3-0.3-0.5c-0.2-0.1-0.3-0.2-0.5-0.3c-0.2-0.1-0.4-0.1-0.6-0.1
						c-0.3,0-0.6,0.1-0.8,0.2c-0.2,0.1-0.4,0.3-0.5,0.5c-0.1,0.2-0.2,0.4-0.3,0.7s-0.1,0.5-0.1,0.8h-1
						C1247.1-900.2,1247.1-900.6,1247.3-900.9"/>
				</g>
				<g>
					<defs>
						<rect id="SVGID_177_" x="904" y="-1396.5" width="531" height="552"/>
					</defs>
					<clipPath id="SVGID_178_">
						<use xlink:href="#SVGID_177_"  style="overflow:visible;"/>
					</clipPath>
					<path class="st90" d="M1253.8-899.4c0-0.3,0.1-0.7,0.1-1c0.1-0.3,0.2-0.6,0.3-0.9s0.3-0.5,0.5-0.8s0.5-0.4,0.8-0.5
						c0.3-0.1,0.7-0.2,1.1-0.2c0.4,0,0.8,0.1,1.1,0.2c0.3,0.1,0.6,0.3,0.8,0.5s0.4,0.5,0.5,0.8c0.1,0.3,0.2,0.6,0.3,0.9
						c0.1,0.3,0.1,0.7,0.1,1c0,0.3,0,0.7,0,1s0,0.6,0,1c0,0.3-0.1,0.7-0.1,1c-0.1,0.3-0.2,0.6-0.3,0.9c-0.1,0.3-0.3,0.5-0.5,0.8
						c-0.2,0.2-0.5,0.4-0.8,0.5c-0.3,0.1-0.7,0.2-1.1,0.2c-0.4,0-0.8-0.1-1.1-0.2c-0.3-0.1-0.6-0.3-0.8-0.5
						c-0.2-0.2-0.4-0.5-0.5-0.8s-0.2-0.6-0.3-0.9c-0.1-0.3-0.1-0.7-0.1-1c0-0.3,0-0.7,0-1C1253.8-898.7,1253.8-899,1253.8-899.4
						 M1254.9-897.3c0,0.4,0.1,0.8,0.2,1.1s0.3,0.6,0.5,0.9s0.6,0.4,1,0.4c0.4,0,0.8-0.1,1-0.4s0.4-0.5,0.5-0.9s0.2-0.7,0.2-1.1
						c0-0.4,0-0.8,0-1.1c0-0.2,0-0.4,0-0.7s0-0.5-0.1-0.8c0-0.3-0.1-0.5-0.2-0.7s-0.2-0.5-0.3-0.6s-0.3-0.3-0.5-0.4
						s-0.4-0.2-0.7-0.2s-0.5,0.1-0.7,0.2s-0.4,0.3-0.5,0.4s-0.2,0.4-0.3,0.6c-0.1,0.2-0.1,0.5-0.2,0.7s-0.1,0.5-0.1,0.8
						c0,0.3,0,0.5,0,0.7C1254.8-898.1,1254.8-897.8,1254.9-897.3"/>
				</g>
				<g>
					<defs>
						<rect id="SVGID_179_" x="904" y="-1396.5" width="531" height="552"/>
					</defs>
					<clipPath id="SVGID_180_">
						<use xlink:href="#SVGID_179_"  style="overflow:visible;"/>
					</clipPath>
					<path class="st91" d="M1261.8-900.4v0.8h0c0.2-0.3,0.4-0.6,0.8-0.8s0.8-0.2,1.2-0.2c0.5,0,0.9,0.1,1.3,0.3
						c0.4,0.2,0.7,0.4,0.9,0.7c0.2,0.3,0.4,0.7,0.5,1c0.1,0.4,0.2,0.8,0.2,1.3s-0.1,0.9-0.2,1.3c-0.1,0.4-0.3,0.7-0.5,1
						c-0.2,0.3-0.5,0.5-0.9,0.7s-0.8,0.3-1.2,0.3c-0.2,0-0.3,0-0.5,0c-0.2,0-0.4-0.1-0.6-0.2c-0.2-0.1-0.4-0.2-0.5-0.3
						s-0.3-0.3-0.4-0.5h0v3.2h-1v-8.6L1261.8-900.4L1261.8-900.4z M1265.4-898.2c-0.1-0.3-0.2-0.5-0.3-0.7s-0.3-0.4-0.6-0.5
						c-0.2-0.1-0.5-0.2-0.9-0.2c-0.3,0-0.6,0.1-0.9,0.2c-0.2,0.1-0.4,0.3-0.6,0.5c-0.2,0.2-0.3,0.5-0.3,0.8s-0.1,0.6-0.1,0.8
						c0,0.3,0,0.6,0.1,0.9s0.2,0.5,0.3,0.8c0.2,0.2,0.4,0.4,0.6,0.5s0.6,0.2,0.9,0.2s0.7-0.1,0.9-0.2c0.2-0.1,0.4-0.3,0.6-0.5
						c0.1-0.2,0.3-0.5,0.3-0.8c0.1-0.3,0.1-0.6,0.1-0.9C1265.5-897.7,1265.5-898,1265.4-898.2"/>
				</g>
				<g>
					<defs>
						<rect id="SVGID_181_" x="904" y="-1396.5" width="531" height="552"/>
					</defs>
					<clipPath id="SVGID_182_">
						<use xlink:href="#SVGID_181_"  style="overflow:visible;"/>
					</clipPath>
					<polygon class="st92" points="1267.3,-900.4 1268.6,-900.4 1270.1,-898.3 1271.7,-900.4 1272.9,-900.4 1270.8,-897.6 
						1273.2,-894.2 1271.8,-894.2 1270.1,-896.8 1268.4,-894.2 1267.2,-894.2 1269.5,-897.5 					"/>
				</g>
				<g>
					<defs>
						<rect id="SVGID_183_" x="904" y="-1396.5" width="531" height="552"/>
					</defs>
					<clipPath id="SVGID_184_">
						<use xlink:href="#SVGID_183_"  style="overflow:visible;"/>
					</clipPath>
					<polygon class="st93" points="1283.2,-897.7 1283.2,-896.9 1280.6,-896.9 1280.6,-894.2 1279.8,-894.2 1279.8,-896.9 
						1277.2,-896.9 1277.2,-897.7 1279.8,-897.7 1279.8,-900.3 1280.6,-900.3 1280.6,-897.7 					"/>
				</g>
			</g>
		</g>
	</g>
</g>
<path class="st94" d="M781,7H19C12.4,7,7,12.4,7,19v762c0,6.6,5.4,12,12,12h762c6.6,0,12-5.4,12-12V19C793,12.4,787.6,7,781,7z"/>
<g transform="translate(0,0)" class="st0">
	<path class="st95" d="M397.8,701.3c41.6,1.2,76.3-31.5,77.5-73.1c0-0.7,0-1.5,0-2.2c0-41.6-33.7-75.3-75.3-75.3
		s-75.3,33.7-75.3,75.3C324.7,666.8,357.1,700.1,397.8,701.3z M406.6,513c31-0.1,31-2.4,31-37.7V211.7H513l-113-113l-113,113h75.3
		v263.7c0,37.7,0,37.7,37.7,37.7C402.4,513,404.6,513,406.6,513z"/>
</g>
<path class="st96" d="M422.3,99.6l52,9.4c117.3,29,206.3,128.6,222.8,248.7c22,159.7-81.9,305.8-240.3,337.4
	c-11.4,2.3-23.1,3.6-34.6,5.3H263l0.1-301.7c0-6.7,0.6-13.6,1.7-20.1C275.1,311,336.8,260,404.4,262.6c71.3,3,128.6,58,133.1,128.2
	c6.7,104.2-99.4,177.4-194.4,134c-2-0.9-4.1-1.7-7-2.8l0.3,93.8c0,1.9,3.6,4.7,5.9,5.3c30.4,8.7,61.5,10.5,92.7,5.5
	c132-21.2,217.2-146.5,188.6-276.6c-26.4-120.4-146.8-199.2-266.8-174.8c-108.6,21.8-184.4,114.5-184.7,225.6v291.6
	c0,2.6,0.3,5.1,0.6,7.8h-71.7V377.3l2.8-18.4c16.5-121.2,105-220.4,223.7-249.9c16.8-4.2,34.2-6.2,51.2-9.4L422.3,99.6L422.3,99.6z"
	/>
<g class="st0">
	<path class="st97" d="M400,107.3c-165.7,0-300,134.3-300,300c0,132.6,86,245,205.2,284.7c15,2.8,20.5-6.5,20.5-14.4
		c0-7.2-0.3-30.8-0.4-55.9c-83.5,18.2-101.1-35.4-101.1-35.4c-13.6-34.7-33.3-43.9-33.3-43.9c-27.2-18.6,2.1-18.2,2.1-18.2
		c30.1,2.1,46,30.9,46,30.9c26.8,45.9,70.2,32.6,87.3,24.9c2.7-19.4,10.5-32.6,19-40.1c-66.6-7.6-136.7-33.3-136.7-148.3
		c0-32.8,11.7-59.5,30.9-80.5c-3.1-7.6-13.4-38.1,2.9-79.4c0,0,25.2-8.1,82.5,30.8c23.9-6.6,49.6-10,75.1-10.1
		c25.5,0.1,51.2,3.4,75.2,10.1c57.3-38.8,82.4-30.8,82.4-30.8c16.3,41.3,6.1,71.8,3,79.4c19.2,21,30.9,47.8,30.9,80.5
		c0,115.3-70.2,140.6-137,148.1c10.8,9.3,20.4,27.6,20.4,55.6c0,40.2-0.3,72.5-0.3,82.3c0,8,5.4,17.3,20.6,14.4
		c119.2-39.7,205-152.2,205-284.7C700,241.6,565.7,107.3,400,107.3z"/>
	<path class="st95" d="M213.6,538.1c-0.7,1.5-3,1.9-5.1,0.9c-2.2-1-3.4-3-2.7-4.5c0.6-1.5,3-2,5.2-0.9
		C213.1,534.5,214.3,536.6,213.6,538.1L213.6,538.1z"/>
	<path class="st95" d="M225.7,551.6c-1.4,1.3-4.2,0.7-6.1-1.4c-2-2.1-2.3-4.9-0.9-6.2c1.5-1.3,4.2-0.7,6.1,1.4
		C226.8,547.5,227.2,550.3,225.7,551.6L225.7,551.6z"/>
	<path class="st95" d="M237.5,568.9c-1.8,1.3-4.9,0.1-6.7-2.6c-1.8-2.7-1.8-5.9,0-7.2c1.9-1.3,4.8-0.1,6.7,2.5
		C239.4,564.4,239.4,567.6,237.5,568.9L237.5,568.9z"/>
	<path class="st95" d="M253.7,585.6c-1.6,1.8-5.1,1.3-7.7-1.2c-2.6-2.4-3.4-5.8-1.7-7.7c1.7-1.8,5.2-1.3,7.8,1.2
		C254.7,580.3,255.5,583.8,253.7,585.6L253.7,585.6z"/>
	<path class="st95" d="M276.1,595.3c-0.7,2.3-4.1,3.4-7.5,2.4c-3.4-1-5.6-3.8-4.9-6.2c0.7-2.4,4.1-3.5,7.5-2.4
		C274.6,590.2,276.8,592.9,276.1,595.3L276.1,595.3z"/>
	<path class="st95" d="M300.7,597.1c0.1,2.5-2.8,4.5-6.4,4.6c-3.6,0.1-6.5-1.9-6.5-4.4c0-2.5,2.8-4.5,6.4-4.6
		C297.7,592.6,300.7,594.6,300.7,597.1L300.7,597.1z"/>
	<path class="st95" d="M323.5,593.2c0.4,2.4-2,4.9-5.6,5.5c-3.5,0.6-6.7-0.8-7.1-3.3c-0.4-2.5,2.1-5,5.6-5.6
		C319.9,589.3,323.1,590.7,323.5,593.2L323.5,593.2z"/>
</g>
<g class="st0">
	<path class="st95" d="M704.6,246.1c-7.2-27.5-28.9-49.1-56.4-56.7C598.7,176,400,176,400,176s-198.7,0-248.5,13.4
		c-27.5,7.2-48.8,28.9-56.4,56.7c-13,49.8-13,153.9-13,153.9s0,104,13.4,153.9c7.2,27.5,28.9,49.1,56.4,56.7
		C201.3,624,400,624,400,624s198.7,0,248.5-13.4c27.5-7.2,48.8-28.9,56.4-56.7c13-49.9,13-153.9,13-153.9S717.9,296,704.6,246.1z"/>
	<polygon class="st98" points="335,494.6 335,305.4 501.2,400 	"/>
</g>
<path class="st96" d="M621.1,234.1c0,0-63.4-49.6-138.2-55.3l-6.8,13.5c67.7,16.6,98.7,40.3,131.1,69.4
	c-55.9-28.5-111.1-55.3-207.3-55.3s-151.4,26.8-207.3,55.3c32.4-29.1,69.4-55.5,131.1-69.4l-6.8-13.5
	c-78.5,7.4-138.2,55.3-138.2,55.3s-70.8,102.6-82.9,304.1c71.3,82.3,179.7,82.9,179.7,82.9l22.7-30.2
	c-38.5-13.4-81.9-37.2-119.4-80.4c44.8,33.9,112.3,69.1,221.2,69.1s176.4-35.3,221.2-69.1c-37.5,43.1-81,67-119.4,80.4l22.7,30.2
	c0,0,108.3-0.7,179.7-82.9C691.8,336.8,621.1,234.1,621.1,234.1z M310.1,482.9c-26.7,0-48.4-24.8-48.4-55.3s21.7-55.3,48.4-55.3
	s48.4,24.8,48.4,55.3S336.8,482.9,310.1,482.9z M489.8,482.9c-26.7,0-48.4-24.8-48.4-55.3s21.7-55.3,48.4-55.3
	c26.7,0,48.4,24.8,48.4,55.3S516.5,482.9,489.8,482.9z"/>
<path class="st99" d="M19,7h762c6.6,0,12,5.4,12,12v762c0,6.6-5.4,12-12,12H19c-6.6,0-12-5.4-12-12V19C7,12.4,12.4,7,19,7z"/>
<path class="st100" d="M393,100.3c-165.7,0-300,134.3-300,300c0,132.6,86,245,205.2,284.7c15,2.8,20.5-6.5,20.5-14.4
	c0-7.2-0.3-30.8-0.4-55.9c-83.5,18.2-101.1-35.4-101.1-35.4c-13.6-34.7-33.3-43.9-33.3-43.9c-27.2-18.6,2.1-18.2,2.1-18.2
	c30.1,2.1,46,30.9,46,30.9c26.7,45.9,70.1,32.7,87.2,24.9c2.7-19.4,10.5-32.6,19-40.1c-66.6-7.6-136.7-33.3-136.7-148.3
	c0-32.8,11.7-59.5,30.9-80.5c-3.1-7.6-13.4-38.1,2.9-79.4c0,0,25.2-8.1,82.5,30.8c49.2-13.5,101.1-13.5,150.3,0
	c57.3-38.8,82.4-30.8,82.4-30.8c16.3,41.3,6.1,71.8,2.9,79.4c19.2,21,30.9,47.8,30.9,80.5c0,115.3-70.2,140.6-137,148
	c10.8,9.3,20.4,27.6,20.4,55.6c0,40.2-0.4,72.5-0.4,82.3c0,8,5.4,17.3,20.6,14.4c119.2-39.6,205-152.1,205-284.6
	C693,234.6,558.7,100.3,393,100.3z"/>
<path class="st101" d="M206.6,531.1c-0.7,1.5-3,1.9-5.1,0.9s-3.4-3-2.7-4.5s3-2,5.2-0.9S207.3,529.5,206.6,531.1z"/>
<path class="st101" d="M218.7,544.6c-1.4,1.3-4.2,0.7-6.1-1.4s-2.3-4.9-0.9-6.2s4.2-0.7,6.1,1.4S220.2,543.3,218.7,544.6
	L218.7,544.6z"/>
<path class="st101" d="M230.5,561.9c-1.8,1.3-4.9,0.1-6.7-2.6s-1.8-5.9,0-7.2s4.8-0.1,6.7,2.5S232.4,560.6,230.5,561.9L230.5,561.9z
	"/>
<path class="st101" d="M246.7,578.6c-1.6,1.8-5.1,1.3-7.7-1.2s-3.4-5.8-1.7-7.7s5.2-1.3,7.8,1.2S248.5,576.8,246.7,578.6
	L246.7,578.6z"/>
<path class="st101" d="M269.1,588.3c-0.7,2.3-4.1,3.4-7.5,2.4s-5.6-3.8-4.9-6.2s4.1-3.5,7.5-2.4S269.8,585.9,269.1,588.3z"/>
<path class="st101" d="M293.7,590.1c0.1,2.5-2.8,4.5-6.4,4.6s-6.5-1.9-6.5-4.4s2.8-4.5,6.4-4.6S293.7,587.6,293.7,590.1z"/>
<path class="st101" d="M316.5,586.2c0.4,2.4-2.1,4.9-5.6,5.5s-6.7-0.8-7.1-3.2s2.1-5,5.6-5.6S316.1,583.7,316.5,586.2z"/>
</svg>
