<svg id="Layer_1" data-name="Layer 1" xmlns="http://www.w3.org/2000/svg" viewBox="0 0 786 786"><defs><style>.cls-1{fill:#212121;}.cls-2{fill:#e3621f;}</style></defs><rect class="cls-1" width="786" height="786" rx="12"/><path class="cls-2" d="M704.56,246.11a80.46,80.46,0,0,0-56.35-56.72C598.72,176,400,176,400,176s-198.69,0-248.55,13.37c-27.45,7.22-48.77,28.9-56.35,56.72C82.12,296,82.12,400,82.12,400s0,104,13.37,153.89a80.46,80.46,0,0,0,56.35,56.72C201.34,624,400,624,400,624s198.69,0,248.54-13.37c27.45-7.22,48.77-28.9,56.35-56.72,13-49.85,13-153.89,13-153.89S717.93,296,704.56,246.11Z" transform="translate(-7 -7)"/><polygon class="cls-1" points="328 487.65 328 298.35 494.18 393 328 487.65"/></svg>